<svg xmlns="http://www.w3.org/2000/svg" viewBox="0 0 64.48 64.48"><defs><style>.cls-1,.cls-2{fill:none;stroke-miterlimit:10;}.cls-1{stroke:#525552;stroke-width:0.75px;}.cls-2{stroke:#a4a4a5;stroke-width:2px;}</style></defs><title>description-icon</title><g id="Layer_2" data-name="Layer 2"><g id="Layer_1-2" data-name="Layer 1"><polygon class="cls-1" points="20.37 25.87 32.31 37.81 34.19 42.2 29.8 40.32 17.86 28.38 20.37 25.87"/><path class="cls-1" d="M19.74,25.87l-.63-.63a1.33,1.33,0,0,0-1.88,0h0a1.33,1.33,0,0,0,0,1.88l.63.63"/><line class="cls-1" x1="31.68" y1="37.81" x2="29.8" y2="39.69"/><path class="cls-1" d="M24.14,27.13V20.22A1.26,1.26,0,0,1,25.4,19H39.22l5,5v20.1A1.26,1.26,0,0,1,43,45.35H25.4a1.26,1.26,0,0,1-1.26-1.26V37.18"/><polyline class="cls-1" points="42.36 24.61 38.59 24.61 38.59 20.84"/><line class="cls-1" x1="36.08" y1="42.2" x2="41.1" y2="42.2"/><line class="cls-1" x1="28.54" y1="28.38" x2="40.48" y2="28.38"/><line class="cls-1" x1="28.54" y1="30.9" x2="40.48" y2="30.9"/><line class="cls-1" x1="31.05" y1="33.41" x2="40.48" y2="33.41"/><line class="cls-1" x1="33.57" y1="35.92" x2="40.48" y2="35.92"/><circle class="cls-2" cx="32.24" cy="32.24" r="31.24"/></g></g></svg>