<svg xmlns="http://www.w3.org/2000/svg" viewBox="0 0 64.48 64.48"><defs><style>.cls-1{fill:#55585a;}.cls-2,.cls-3{fill:none;stroke-miterlimit:10;}.cls-2{stroke:#525552;stroke-width:0.75px;}.cls-3{stroke:#a4a4a5;stroke-width:2px;}</style></defs><title>direction-icon</title><g id="Layer_2" data-name="Layer 2"><g id="Layer_1-2" data-name="Layer 1"><path class="cls-1" d="M32.4,45.26a.37.37,0,0,1-.3-.15c-.33-.44-8.05-10.73-8.48-11.48a10.11,10.11,0,1,1,17.5.09c-.42.71-8.1,10.95-8.43,11.39A.37.37,0,0,1,32.4,45.26Zm0-26a9.37,9.37,0,0,0-8.13,14c.32.56,5.72,7.79,8.13,11,2.4-3.2,7.77-10.39,8.08-10.92a9.37,9.37,0,0,0-8.08-14.1Z"/><path class="cls-1" d="M32.4,34.53a5.91,5.91,0,1,1,4.18-1.73A5.87,5.87,0,0,1,32.4,34.53Zm0-11.08A5.17,5.17,0,1,0,36.05,25,5.14,5.14,0,0,0,32.4,23.45Z"/><line class="cls-2" x1="21.2" y1="41.25" x2="27.42" y2="41.25"/><line class="cls-2" x1="38.31" y1="41.25" x2="45.62" y2="41.25"/><line class="cls-2" x1="37.07" y1="44.17" x2="47.63" y2="44.17"/><circle class="cls-3" cx="32.24" cy="32.24" r="31.24"/></g></g></svg>