<svg xmlns="http://www.w3.org/2000/svg" viewBox="0 0 64.48 64.48"><defs><style>.cls-1{fill:#55585a;}.cls-2{fill:none;stroke:#a4a4a5;stroke-miterlimit:10;stroke-width:2px;}</style></defs><title>facility-icon</title><g id="Layer_2" data-name="Layer 2"><g id="Layer_1-2" data-name="Layer 1"><path class="cls-1" d="M40.9,45.26H24.49a2.19,2.19,0,0,1-2.19-2.19V21.65a2.19,2.19,0,0,1,2.19-2.19H37.93a.39.39,0,0,1,.27.11L43,24.24a.39.39,0,0,1,.12.28V43.07A2.19,2.19,0,0,1,40.9,45.26Zm-16.4-25a1.42,1.42,0,0,0-1.42,1.42V43.07a1.42,1.42,0,0,0,1.42,1.42H40.9a1.42,1.42,0,0,0,1.42-1.42V24.68l-4.54-4.45Z"/><path class="cls-1" d="M39.1,31.5H26.29a.39.39,0,1,1,0-.77H39.1a.39.39,0,0,1,0,.77Z"/><path class="cls-1" d="M39.1,35.59H26.29a.39.39,0,1,1,0-.77H39.1a.39.39,0,0,1,0,.77Z"/><path class="cls-1" d="M39.1,39.66H26.29a.39.39,0,1,1,0-.77H39.1a.39.39,0,0,1,0,.77Z"/><path class="cls-1" d="M41.53,25.55H39.6A2.58,2.58,0,0,1,37,23V21a.39.39,0,0,1,.77,0V23a1.8,1.8,0,0,0,1.8,1.8h1.93a.39.39,0,0,1,0,.77Z"/><circle class="cls-2" cx="32.24" cy="32.24" r="31.24"/></g></g></svg>