<svg xmlns="http://www.w3.org/2000/svg" viewBox="0 0 21.78 19.97"><defs><style>.cls-1{fill:#898b8c;}</style></defs><title>Asset 5</title><g id="Layer_2" data-name="Layer 2"><g id="Layer_1-2" data-name="Layer 1"><g id="BAG"><g id="bag-2" data-name="bag"><rect class="cls-1" x="6.4" y="5.4" width="2.36" height="13.06"/><rect class="cls-1" x="13.01" y="5.4" width="2.36" height="13.06"/><path class="cls-1" d="M18.74,5.4H17.23a3.88,3.88,0,0,0,3,3V6.93A1.53,1.53,0,0,0,18.74,5.4Z"/><path class="cls-1" d="M4.54,5.4H3A1.53,1.53,0,0,0,1.51,6.93V8.41a3.84,3.84,0,0,0,2-1A3.85,3.85,0,0,0,4.54,5.4Z"/><path class="cls-1" d="M1.51,15.46v1.47A1.53,1.53,0,0,0,3,18.46H4.54a3.85,3.85,0,0,0-1.07-2A3.84,3.84,0,0,0,1.51,15.46Z"/><path class="cls-1" d="M17.23,18.46h1.51a1.53,1.53,0,0,0,1.53-1.53V15.46a3.88,3.88,0,0,0-3,3Z"/><path class="cls-1" d="M21.78,6.93a3,3,0,0,0-3-3H3a3,3,0,0,0-3,3v10a3,3,0,0,0,3,3h15.7a3,3,0,0,0,3-3Zm-1.51,10a1.53,1.53,0,0,1-1.53,1.53H3a1.53,1.53,0,0,1-1.53-1.53v-10A1.53,1.53,0,0,1,3,5.4h15.7a1.53,1.53,0,0,1,1.53,1.53Z"/></g><path id="handle" class="cls-1" d="M8.77,3V1.47H13V3h1.47V1.46A1.46,1.46,0,0,0,13,0H8.76A1.46,1.46,0,0,0,7.3,1.46V3Z"/></g></g></g></svg>