<svg xmlns="http://www.w3.org/2000/svg" viewBox="0 0 29.29 25.72"><defs><style>.cls-1,.cls-2{fill:none;stroke:#fff;}.cls-1{stroke-miterlimit:10;}.cls-2{stroke-linejoin:round;}</style></defs><title>Asset 6</title><g id="Layer_2" data-name="Layer 2"><g id="Layer_1-2" data-name="Layer 1"><line class="cls-1" x1="18.95" y1="25.72" x2="18.95" y2="5.42"/><line class="cls-1" x1="15.88" y1="11.57" x2="18.95" y2="14.65"/><line class="cls-1" x1="21.41" y1="8.5" x2="18.95" y2="10.96"/><line class="cls-2" x1="1.11" y1="23.87" x2="1.11" y2="25.72"/><line class="cls-2" x1="1.73" y1="15.26" x2="1.73" y2="20.18"/><line class="cls-2" x1="14.03" y1="23.87" x2="14.03" y2="25.72"/><line class="cls-2" x1="13.42" y1="15.26" x2="13.42" y2="20.18"/><rect class="cls-2" x="1.73" y="16.49" width="11.69" height="2.46"/><rect class="cls-2" x="0.5" y="21.41" width="14.15" height="2.46"/><path class="cls-1" d="M15.26,17.11h7.69A5.84,5.84,0,0,0,24.44,5.62a5.84,5.84,0,0,0-11.59,0,5.84,5.84,0,0,0-3.28,9"/></g></g></svg>