<svg xmlns="http://www.w3.org/2000/svg" viewBox="0 0 24.76 16.82"><defs><style>.cls-1{fill:#fff;}</style></defs><title>Asset 3</title><g id="Layer_2" data-name="Layer 2"><g id="Layer_1-2" data-name="Layer 1"><path class="cls-1" d="M23.65,0H1.11A1.11,1.11,0,0,0,0,1.11V15.71a1.11,1.11,0,0,0,1.11,1.11H23.65a1.11,1.11,0,0,0,1.11-1.11V1.11A1.11,1.11,0,0,0,23.65,0m-.41,15.3H1.52V1.52H23.24Z"/><path class="cls-1" d="M14.15,6.63l1-3.16h-.68l-.53,1.9,0,.13,0,.19,0,.21,0,.18,0-.18,0-.21,0-.19,0-.12-.54-1.9h-.68l1,3.16Z"/><polygon class="cls-1" points="16.72 6.25 16.34 6.07 16.34 4.02 16.72 3.85 16.72 3.47 15.28 3.47 15.28 3.85 15.67 4.02 15.67 6.07 15.28 6.25 15.28 6.63 16.72 6.63 16.72 6.25"/><path class="cls-1" d="M17.9,6.67a1.49,1.49,0,0,0,.46-.06,1,1,0,0,0,.34-.19.78.78,0,0,0,.21-.29A1,1,0,0,0,19,5.75a.9.9,0,0,0-.05-.33.79.79,0,0,0-.15-.25,1.18,1.18,0,0,0-.24-.2l-.3-.18L18,4.68l-.15-.11a.37.37,0,0,1-.09-.12.36.36,0,0,1,0-.14.33.33,0,0,1,.09-.24A.35.35,0,0,1,18.11,4h.15l.16,0,.17.06.18.08L19,3.65l-.22-.1-.21-.07-.22,0-.22,0a1.3,1.3,0,0,0-.41.06.86.86,0,0,0-.32.17.76.76,0,0,0-.2.28,1,1,0,0,0-.07.38.87.87,0,0,0,.07.37.94.94,0,0,0,.18.26,1.22,1.22,0,0,0,.23.18l.22.13.21.12.17.12a.46.46,0,0,1,.1.13.31.31,0,0,1,0,.16.39.39,0,0,1,0,.14.28.28,0,0,1-.07.11.35.35,0,0,1-.13.07l-.19,0-.22,0L17.49,6,17.28,6l-.21-.1v.62a1.59,1.59,0,0,0,.39.14,2,2,0,0,0,.44,0"/><path class="cls-1" d="M20.08,5.88h1.09l.22.75h.68L21,3.45h-.82l-1,3.18h.68Zm.36-1.25,0-.07,0-.11,0-.14,0-.15,0-.14,0-.11c0,.05,0,.11,0,.18l.05.22.06.19,0,.13.2.69h-.77Z"/><rect class="cls-1" x="2.69" y="13.03" width="19.37" height="0.91"/><rect class="cls-1" x="12.38" y="8.58" width="9.68" height="0.91"/><rect class="cls-1" x="12.38" y="10.8" width="9.68" height="0.91"/><path class="cls-1" d="M2.69,11.71h8V2.88h-8Zm7.17-1H3.54V10a.32.32,0,0,1,0,0h0C3.54,8.81,6,9.53,6,8.19c0-.57-.87-.43-.87-2.46a2.43,2.43,0,0,1,0-.26A1.56,1.56,0,0,1,6.7,3.91h0A1.45,1.45,0,0,1,8,4.75a2,2,0,0,1,.2.73,2.19,2.19,0,0,1,0,.26c0,2-.88,1.88-.87,2.46,0,1.34,2.51.62,2.51,1.77h0a.32.32,0,0,1,0,0Z"/></g></g></svg>