<svg xmlns="http://www.w3.org/2000/svg" viewBox="0 0 36.15 29.98"><defs><style>.cls-1{fill:#111;}</style></defs><title>Asset 2</title><g id="Layer_2" data-name="Layer 2"><g id="Layer_1-2" data-name="Layer 1"><path class="cls-1" d="M3.93,3.41v.05a.17.17,0,0,1-.16.19l-.22,0,0,.23a.17.17,0,0,1-.15.19l-.84.09A.17.17,0,0,1,2.4,4l0-.23-.22,0A.18.18,0,0,1,2,3.67V3.61Z"/><path class="cls-1" d="M6.16,9.32a.58.58,0,0,1,.24-.38.59.59,0,0,1,.81.15l1.47,2.12,0,0,2.82,4.05a.58.58,0,0,1-.15.81.54.54,0,0,1-.17.08l-.17,0a.59.59,0,0,1-.48-.25L9.09,13.84l0,0-2.82-4a.58.58,0,0,1-.1-.44"/><path class="cls-1" d="M3.43,4.1h0L6.78,8.85H6.73a.58.58,0,0,0-.56.43L2.61,4.18Z"/><path class="cls-1" d="M0,1.14l.21,2a.65.65,0,0,0,.72.58L5,3.3a.65.65,0,0,0,.58-.72l-.21-2A.65.65,0,0,0,4.63,0L.58.42A.65.65,0,0,0,0,1.14m.36,0A.34.34,0,0,1,1,1.08l0,.43a.34.34,0,0,1-.68.07Z"/><path class="cls-1" d="M.73,1.42a.23.23,0,1,0-.25-.21.24.24,0,0,0,.25.21"/><path class="cls-1" d="M10,15.31a1,1,0,0,1,.28-.48l4.57-4.4a5.13,5.13,0,0,1,2.73-1.63h0l0,.06,0,0,0,0,0,0,0,0,0,0,0,0,0,0,0,0,0,0,0,0,0,0,.05,0,0,0,.05,0,0,0,.05,0,0,0,.05,0,0,0,.06,0,0,0,.06,0h1l.06,0,0,0,.06,0,0,0,.06,0,0,0,.05,0,0,0,.05,0,0,0,.05,0,0,0,0,0,0,0,0,0,0,0,0,0,0,0,0,0,0,0,0,0,0,0,0-.06a2.13,2.13,0,0,1,.94.4,5.71,5.71,0,0,1,1.18,1.16,8.43,8.43,0,0,1,.53.89l.17.32c.1.16.19.33.27.49l1.5,2.75h0l.89,1.64,0-.06.68,1.24a1,1,0,0,1,.12.4.88.88,0,0,1,0,.14,1,1,0,0,1-.27.64.88.88,0,0,1-.15.13.83.83,0,0,1-.26.11.75.75,0,0,1-.23,0,.84.84,0,0,1-.69-.45l-.44-.81h0l-2.19-4h0l-.23-.41-.94-1.73,0,.17,2.1,7.2a.62.62,0,0,1-.11.56.69.69,0,0,1-.54.25h-1.3v5.42h0v3.53h0a1.17,1.17,0,0,1-.52,1h0l-.06,0h0l-.06,0h0l-.05,0H20.3l-.05,0h0l-.05,0h0l-.06,0h0a1.17,1.17,0,0,1-.52-1h0V25.29h0V20.83h0v-1h-.92v5.42h0v3.53h0a1.17,1.17,0,0,1-.52,1h0l-.06,0h0l-.06,0h0l-.05,0h-.58l-.05,0h0l-.06,0h0l-.06,0h0a1.17,1.17,0,0,1-.52-1h0V25.29h0V21.38h0V19.87h-1.3a.69.69,0,0,1-.54-.25.62.62,0,0,1-.11-.56l2.13-7.29.16-.83-5.49,5.29a.84.84,0,0,1-.79.22.77.77,0,0,1-.21-.09.85.85,0,0,1-.21-.19A.85.85,0,0,1,10,16a1,1,0,0,1-.07-.7"/><path class="cls-1" d="M19.08,8.44a2.83,2.83,0,1,1,2.83-2.83,2.83,2.83,0,0,1-2.83,2.83"/><path class="cls-1" d="M30.63,7.53a2.87,2.87,0,1,0-2.87-2.87,2.87,2.87,0,0,0,2.87,2.87"/><path class="cls-1" d="M25.12,11.55v-.32c0-1.14.4-2.56,1.66-2.9a6.31,6.31,0,0,1,.69-.07h6.32a6.29,6.29,0,0,1,.69.07c1.26.35,1.63,1.76,1.66,2.9,0,.11,0,.21,0,.32a.94.94,0,0,1,0,.15v6.41a1,1,0,1,1-1.93,0V11.68H33.5q0,3.45,0,6.9V28.8A1.17,1.17,0,0,1,32.32,30h0a1.18,1.18,0,0,1-1.18-1.18V18.58h-1V28.8a1.17,1.17,0,1,1-2.35,0V12.46c0-.09,0-.17,0-.26v-.52H27v6.41a1,1,0,0,1-1.93,0V11.7a.94.94,0,0,1,0-.15"/></g></g></svg>