<svg xmlns="http://www.w3.org/2000/svg" viewBox="0 0 18.79 15.27"><defs><style>.cls-1{fill:#fff;}</style></defs><title>Asset 4</title><g id="Layer_2" data-name="Layer 2"><g id="Layer_1-2" data-name="Layer 1"><path class="cls-1" d="M18.79,1.81a7.68,7.68,0,0,1-2.22.61A3.86,3.86,0,0,0,18.28.28a7.73,7.73,0,0,1-2.45.94A3.86,3.86,0,0,0,9.26,4.73a11,11,0,0,1-7.95-4A3.86,3.86,0,0,0,2.5,5.85,3.85,3.85,0,0,1,.76,5.37s0,0,0,0A3.86,3.86,0,0,0,3.85,9.2a3.91,3.91,0,0,1-1,.13,3.79,3.79,0,0,1-.73-.07,3.86,3.86,0,0,0,3.6,2.68A7.74,7.74,0,0,1,.92,13.6,7.71,7.71,0,0,1,0,13.54a10.91,10.91,0,0,0,5.91,1.73,10.9,10.9,0,0,0,11-11c0-.17,0-.33,0-.5a7.8,7.8,0,0,0,1.92-2"/></g></g></svg>