<svg xmlns="http://www.w3.org/2000/svg" viewBox="0 0 26.14 21.67"><defs><style>.cls-1{fill:#fff;}</style></defs><title>Asset 6</title><g id="Layer_2" data-name="Layer 2"><g id="Layer_1-2" data-name="Layer 1"><path class="cls-1" d="M2.84,2.46v0a.13.13,0,0,1-.11.14l-.16,0,0,.17A.13.13,0,0,1,2.48,3L1.88,3a.13.13,0,0,1-.14-.11l0-.17-.16,0a.13.13,0,0,1-.14-.11v0Z"/><path class="cls-1" d="M4.45,6.74a.42.42,0,0,1,.76-.17L6.27,8.1l0,0,2,2.93a.42.42,0,0,1-.11.59l-.12.06-.12,0a.42.42,0,0,1-.35-.18L6.58,10l0,0-2-2.93a.42.42,0,0,1-.07-.31"/><path class="cls-1" d="M2.48,3h0L4.91,6.4h0a.42.42,0,0,0-.24.07.42.42,0,0,0-.17.24L1.89,3Z"/><path class="cls-1" d="M0,.82.15,2.27a.47.47,0,0,0,.52.42l2.92-.3A.47.47,0,0,0,4,1.87L3.86.42A.47.47,0,0,0,3.35,0L.42.3A.47.47,0,0,0,0,.82m.26,0A.25.25,0,0,1,.75.78l0,.31a.24.24,0,0,1-.22.27.25.25,0,0,1-.27-.22Z"/><path class="cls-1" d="M.53,1A.17.17,0,0,0,.5.69.17.17,0,1,0,.53,1"/><path class="cls-1" d="M7.21,11.07a.72.72,0,0,1,.2-.34l3.3-3.18a3.7,3.7,0,0,1,2-1.18h0l0,0,0,0,0,0,0,0,0,0,0,0,0,0,0,0,0,0,0,0,0,0,0,0,0,0,0,0,0,0,0,0,0,0,0,0,0,0h0l0,0h.9l0,0h0l0,0,0,0,0,0,0,0,0,0,0,0,0,0,0,0,0,0,0,0,0,0,0,0,0,0,0,0,0,0,0,0,0,0,0,0,0,0a1.53,1.53,0,0,1,.68.29,4.13,4.13,0,0,1,.86.84,6.18,6.18,0,0,1,.38.64l.13.23.2.36,1.08,2h0l.64,1.18,0,0,.49.9a.72.72,0,0,1,.09.29.81.81,0,0,1,0,.1.72.72,0,0,1-.2.46l-.11.09a.56.56,0,0,1-.19.08l-.16,0a.61.61,0,0,1-.5-.32l-.32-.58h0L16.35,10h0l-.16-.3-.68-1.25,0,.13,1.52,5.2a.45.45,0,0,1-.08.4.5.5,0,0,1-.39.18h-.94v3.92h0v2.55h0a.85.85,0,0,1-.38.71h0l0,0h0l0,0h-.55l0,0h0l0,0h0a.84.84,0,0,1-.37-.71h0V18.29h0V14.36h-.67v3.92h0v2.55h0a.84.84,0,0,1-.37.71h0l0,0h0l0,0h-.55l0,0h0l0,0h0a.85.85,0,0,1-.38-.71h0V18.29h0V15.46h0V14.36H11a.49.49,0,0,1-.39-.18.44.44,0,0,1-.08-.4L12.07,8.5l.11-.6-4,3.82a.6.6,0,0,1-.57.16l-.15-.06a.6.6,0,0,1-.16-.14.58.58,0,0,1-.07-.11.71.71,0,0,1-.05-.5"/><path class="cls-1" d="M13.8,6.1a2,2,0,1,1,2-2,2,2,0,0,1-2,2"/><path class="cls-1" d="M22.15,5.44a2.08,2.08,0,1,0-2.08-2.08,2.08,2.08,0,0,0,2.08,2.08"/><path class="cls-1" d="M18.16,8.35c0-.08,0-.15,0-.23,0-.83.29-1.85,1.2-2.1a4.62,4.62,0,0,1,.5-.05h4.57a4.63,4.63,0,0,1,.5.05c.91.25,1.18,1.27,1.2,2.1,0,.08,0,.15,0,.23a.64.64,0,0,1,0,.11v4.64a.7.7,0,0,1-1.39,0V8.46h-.52q0,2.49,0,5v7.39a.85.85,0,0,1-.85.85h0a.85.85,0,0,1-.85-.85V13.43h-.75v7.39a.85.85,0,0,1-.85.85h0a.85.85,0,0,1-.85-.85V9c0-.06,0-.12,0-.19V8.45h-.52v4.64a.7.7,0,0,1-1.4,0V8.46a.64.64,0,0,1,0-.11"/></g></g></svg>