<svg xmlns="http://www.w3.org/2000/svg" viewBox="0 0 33.3 22.63"><defs><style>.cls-1{fill:#262626;}</style></defs><title>Asset 7</title><g id="Layer_2" data-name="Layer 2"><g id="Layer_1-2" data-name="Layer 1"><path class="cls-1" d="M31.81,0H1.49A1.49,1.49,0,0,0,0,1.49V21.14a1.49,1.49,0,0,0,1.49,1.49H31.81a1.49,1.49,0,0,0,1.49-1.49V1.49A1.49,1.49,0,0,0,31.81,0m-.55,20.58H2V2H31.26Z"/><path class="cls-1" d="M19,8.92l1.33-4.25h-.91l-.71,2.56,0,.17-.06.25-.06.28,0,.23,0-.23-.05-.28-.05-.26,0-.17-.72-2.56h-.91l1.32,4.25Z"/><polygon class="cls-1" points="22.49 8.4 21.97 8.17 21.97 5.41 22.49 5.17 22.49 4.66 20.56 4.66 20.56 5.17 21.07 5.41 21.07 8.17 20.56 8.4 20.56 8.92 22.49 8.92 22.49 8.4"/><path class="cls-1" d="M24.08,9a2,2,0,0,0,.62-.09,1.33,1.33,0,0,0,.46-.25,1,1,0,0,0,.29-.39,1.29,1.29,0,0,0,.1-.51,1.22,1.22,0,0,0-.07-.44A1.12,1.12,0,0,0,25.27,7,1.66,1.66,0,0,0,25,6.7l-.4-.24-.31-.17A1.21,1.21,0,0,1,24,6.14.48.48,0,0,1,23.92,6a.48.48,0,0,1,0-.19A.43.43,0,0,1,24,5.47a.47.47,0,0,1,.35-.12l.21,0,.21,0L25,5.5l.24.11.29-.7-.3-.13-.29-.09-.29-.06-.3,0a1.78,1.78,0,0,0-.56.08,1.17,1.17,0,0,0-.42.24,1,1,0,0,0-.27.38,1.29,1.29,0,0,0-.1.51,1.17,1.17,0,0,0,.1.5,1.24,1.24,0,0,0,.25.35,1.54,1.54,0,0,0,.31.25l.3.17.29.16a1.45,1.45,0,0,1,.22.15.63.63,0,0,1,.14.17.42.42,0,0,1,.05.21.5.5,0,0,1,0,.18.34.34,0,0,1-.1.14.44.44,0,0,1-.17.09.87.87,0,0,1-.26,0l-.29,0-.29-.08L23.24,8,23,7.88v.84a2.16,2.16,0,0,0,.53.19,2.76,2.76,0,0,0,.6.06"/><path class="cls-1" d="M27,7.9h1.47l.29,1h.91L28.29,4.65h-1.1L25.8,8.92h.91Zm.49-1.69,0-.1,0-.15,0-.19.05-.2,0-.19,0-.15c0,.07,0,.15.05.25l.07.29.07.26.05.17.27.93h-1Z"/><rect class="cls-1" x="3.62" y="17.52" width="26.05" height="1.23"/><rect class="cls-1" x="16.65" y="11.54" width="13.02" height="1.23"/><rect class="cls-1" x="16.65" y="14.52" width="13.02" height="1.23"/><path class="cls-1" d="M3.62,15.75H14.41V3.88H3.62Zm9.65-1.39H4.76v-.88s0,0,0,0h0c0-1.55,3.36-.58,3.37-2.39,0-.76-1.18-.57-1.18-3.3a3.31,3.31,0,0,1,0-.35A2.09,2.09,0,0,1,9,5.26H9A2,2,0,0,1,10.8,6.39a2.71,2.71,0,0,1,.26,1,3.31,3.31,0,0,1,0,.35c0,2.73-1.18,2.54-1.18,3.3,0,1.8,3.37.83,3.37,2.39h0s0,0,0,0Z"/></g></g></svg>