<svg xmlns="http://www.w3.org/2000/svg" viewBox="0 0 24.4 20.57"><defs><style>.cls-1{fill:#fff;}</style></defs><title>Asset 3</title><g id="Layer_2" data-name="Layer 2"><g id="Layer_1-2" data-name="Layer 1"><path class="cls-1" d="M23.75,20.57H.65a.65.65,0,1,1,0-1.29H23.75a.65.65,0,1,1,0,1.29"/><polygon class="cls-1" points="6.98 0 7.32 0.7 8.1 0.82 7.54 1.36 7.67 2.14 6.98 1.77 6.28 2.14 6.41 1.36 5.85 0.82 6.63 0.7 6.98 0"/><polygon class="cls-1" points="9.59 0 9.93 0.7 10.71 0.82 10.15 1.36 10.28 2.14 9.59 1.77 8.89 2.14 9.03 1.36 8.46 0.82 9.24 0.7 9.59 0"/><polygon class="cls-1" points="12.2 0 12.55 0.7 13.32 0.82 12.76 1.36 12.89 2.14 12.2 1.77 11.51 2.14 11.64 1.36 11.07 0.82 11.85 0.7 12.2 0"/><polygon class="cls-1" points="14.81 0 15.16 0.7 15.93 0.82 15.37 1.36 15.51 2.14 14.81 1.77 14.12 2.14 14.25 1.36 13.69 0.82 14.46 0.7 14.81 0"/><polygon class="cls-1" points="17.42 0 17.77 0.7 18.55 0.82 17.98 1.36 18.12 2.14 17.42 1.77 16.73 2.14 16.86 1.36 16.3 0.82 17.07 0.7 17.42 0"/><path class="cls-1" d="M18.48,3.07H5.92a.59.59,0,0,0-.6.59V18.5H9.63V16.3a.44.44,0,0,1,.44-.44h4.25a.44.44,0,0,1,.44.44v2.2h4.31V3.66a.59.59,0,0,0-.59-.59M8.74,13.68a.31.31,0,0,1-.31.31H6.86a.31.31,0,0,1-.31-.31V12.59a.31.31,0,0,1,.31-.31H8.43a.31.31,0,0,1,.31.31Zm0-2.56a.31.31,0,0,1-.31.31H6.86a.31.31,0,0,1-.31-.31V10a.31.31,0,0,1,.31-.31H8.43a.31.31,0,0,1,.31.31Zm0-2.56a.31.31,0,0,1-.31.31H6.86a.31.31,0,0,1-.31-.31V7.46a.31.31,0,0,1,.31-.31H8.43a.31.31,0,0,1,.31.31ZM8.74,6a.31.31,0,0,1-.31.31H6.86A.31.31,0,0,1,6.54,6V4.9a.31.31,0,0,1,.31-.31H8.43a.31.31,0,0,1,.31.31Zm3,7.69a.31.31,0,0,1-.31.31H9.9a.31.31,0,0,1-.31-.31V12.59a.31.31,0,0,1,.31-.31h1.57a.31.31,0,0,1,.31.31Zm0-2.56a.31.31,0,0,1-.31.31H9.9a.31.31,0,0,1-.31-.31V10a.31.31,0,0,1,.31-.31h1.57a.31.31,0,0,1,.31.31Zm0-2.56a.31.31,0,0,1-.31.31H9.9a.31.31,0,0,1-.31-.31V7.46a.31.31,0,0,1,.31-.31h1.57a.31.31,0,0,1,.31.31Zm0-2.56a.31.31,0,0,1-.31.31H9.9A.31.31,0,0,1,9.59,6V4.9a.31.31,0,0,1,.31-.31h1.57a.31.31,0,0,1,.31.31Zm3,7.69a.31.31,0,0,1-.31.31H12.92a.31.31,0,0,1-.31-.31V12.59a.31.31,0,0,1,.31-.31H14.5a.31.31,0,0,1,.31.31Zm0-2.56a.31.31,0,0,1-.31.31H12.92a.31.31,0,0,1-.31-.31V10a.31.31,0,0,1,.31-.31H14.5a.31.31,0,0,1,.31.31Zm0-2.56a.31.31,0,0,1-.31.31H12.92a.31.31,0,0,1-.31-.31V7.46a.31.31,0,0,1,.31-.31H14.5a.31.31,0,0,1,.31.31Zm0-2.56a.31.31,0,0,1-.31.31H12.92A.31.31,0,0,1,12.61,6V4.9a.31.31,0,0,1,.31-.31H14.5a.31.31,0,0,1,.31.31Zm3,7.69a.31.31,0,0,1-.31.31H16a.31.31,0,0,1-.31-.31V12.59a.31.31,0,0,1,.31-.31h1.57a.31.31,0,0,1,.31.31Zm0-2.56a.31.31,0,0,1-.31.31H16a.31.31,0,0,1-.31-.31V10A.31.31,0,0,1,16,9.71h1.57a.31.31,0,0,1,.31.31Zm0-2.56a.31.31,0,0,1-.31.31H16a.31.31,0,0,1-.31-.31V7.46A.31.31,0,0,1,16,7.15h1.57a.31.31,0,0,1,.31.31Zm0-2.56a.31.31,0,0,1-.31.31H16A.31.31,0,0,1,15.66,6V4.9A.31.31,0,0,1,16,4.59h1.57a.31.31,0,0,1,.31.31Z"/><path class="cls-1" d="M22.24,10.45H19.85v8h3V11a.58.58,0,0,0-.58-.58"/><path class="cls-1" d="M2.16,10.45a.58.58,0,0,0-.58.58V18.5h3v-8Z"/></g></g></svg>