<svg xmlns="http://www.w3.org/2000/svg" viewBox="0 0 15.16 15.16"><defs><style>.cls-1{fill:#fff;}</style></defs><title>Asset 3</title><g id="Layer_2" data-name="Layer 2"><g id="Layer_1-2" data-name="Layer 1"><path class="cls-1" d="M7.58,3.64A3.91,3.91,0,1,0,11.5,7.55,3.92,3.92,0,0,0,7.58,3.64m0,6.42a2.51,2.51,0,1,1,2.51-2.51,2.52,2.52,0,0,1-2.51,2.51"/><path class="cls-1" d="M11.65,2.66a.89.89,0,1,1-.89.89.89.89,0,0,1,.89-.89"/><path class="cls-1" d="M13.94,1.25A4.35,4.35,0,0,0,10.73,0H4.43A4.19,4.19,0,0,0,0,4.43V10.7A4.4,4.4,0,0,0,1.28,14a4.46,4.46,0,0,0,3.18,1.19H10.7A4.51,4.51,0,0,0,13.91,14a4.38,4.38,0,0,0,1.25-3.24V4.43a4.38,4.38,0,0,0-1.22-3.18m-.12,9.48A3,3,0,0,1,12.93,13a3.16,3.16,0,0,1-2.23.79H4.46A3.16,3.16,0,0,1,2.23,13a3.07,3.07,0,0,1-.83-2.26V4.43A3,3,0,0,1,2.23,2.2a3.11,3.11,0,0,1,2.23-.79h6.3A3,3,0,0,1,13,2.23a3.15,3.15,0,0,1,.83,2.2Z"/></g></g></svg>