<svg xmlns="http://www.w3.org/2000/svg" viewBox="0 0 50.45 73.08"><defs><style>.cls-1{fill:#fff;}</style></defs><title>Asset 2</title><g id="Layer_2" data-name="Layer 2"><g id="Layer_1-2" data-name="Layer 1"><path class="cls-1" d="M15.69,38.43h19A4.44,4.44,0,0,0,39.13,34V28.46c0-7.31-6.25-13.26-13.93-13.26S11.25,21.15,11.25,28.46V34a4.44,4.44,0,0,0,4.44,4.44m-3.18-10c0-6.62,5.69-12,12.68-12s12.68,5.38,12.68,12V34a3.18,3.18,0,0,1-3.18,3.18h-19A3.18,3.18,0,0,1,12.51,34Z"/><path class="cls-1" d="M11.54,49.78a3.9,3.9,0,0,0-3.9,3.9V63.75a3.9,3.9,0,0,0,3.9,3.9H38.83a3.9,3.9,0,0,0,3.9-3.9V53.68a3.9,3.9,0,0,0-3.9-3.9Zm29.93,3.9V63.75a2.64,2.64,0,0,1-2.64,2.64H11.54a2.64,2.64,0,0,1-2.64-2.64V53.68A2.64,2.64,0,0,1,11.54,51H38.83a2.64,2.64,0,0,1,2.64,2.64"/><path class="cls-1" d="M16,24.19H32.77v5.26a.63.63,0,1,0,1.26,0V23.33a.63.63,0,0,0-1.12-.4H16a.63.63,0,1,0,0,1.26"/><path class="cls-1" d="M49.39,33.81a3.76,3.76,0,0,0-1.8-.73,25.78,25.78,0,0,0-1.89-9.57v-12A2.55,2.55,0,0,0,43.15,9H39.42a2.55,2.55,0,0,0-2.55,2.55v1a21.29,21.29,0,0,0-7.35-3.1C29.48,4.06,27.63,0,25.19,0S20.9,4.06,20.86,9.46a21.25,21.25,0,0,0-7.28,3.06v-1A2.55,2.55,0,0,0,11,9H7.3a2.55,2.55,0,0,0-2.55,2.55V23.35a25.76,25.76,0,0,0-2,9.75A3,3,0,0,0,0,35.85V56.53a2.58,2.58,0,0,0,1.06,2,3.74,3.74,0,0,0,1.73.72V69.73a3.36,3.36,0,0,0,3.35,3.35h38.1a3.36,3.36,0,0,0,3.35-3.35V59.3a3,3,0,0,0,2.86-2.77V35.85a2.58,2.58,0,0,0-1.06-2M2.79,58a2.42,2.42,0,0,1-1-.43,1.35,1.35,0,0,1-.58-1V35.85c0-.68.66-1.27,1.53-1.47ZM38.13,11.55a1.29,1.29,0,0,1,1.29-1.29h3.73a1.29,1.29,0,0,1,1.29,1.29v9.32a23.8,23.8,0,0,0-6.32-7.4ZM25.19,1.26c1.41,0,3,3.26,3.06,8a20.34,20.34,0,0,0-6.13,0c.08-4.72,1.65-8,3.06-8M6,11.55A1.29,1.29,0,0,1,7.3,10.26H11a1.29,1.29,0,0,1,1.29,1.29v1.87A23.76,23.76,0,0,0,6,20.74ZM46.33,69.73a2.09,2.09,0,0,1-2.09,2.09H6.14A2.09,2.09,0,0,1,4,69.73V33.24c0-12.67,9.48-23,21.14-23s21.14,10.31,21.14,23Zm2.86-13.2c0,.7-.69,1.3-1.6,1.49V34.37a2.44,2.44,0,0,1,1,.44,1.35,1.35,0,0,1,.58,1Z"/><path class="cls-1" d="M36.3,54.11a.63.63,0,0,0-.46.21H13.44a.63.63,0,1,0,0,1.26H35.67v5.28a.63.63,0,0,0,1.26,0V54.74a.63.63,0,0,0-.63-.63"/></g></g></svg>