<svg xmlns="http://www.w3.org/2000/svg" viewBox="0 0 19.89 21.42"><defs><style>.cls-1{fill:#fff;}</style></defs><title>Asset 1</title><g id="Layer_2" data-name="Layer 2"><g id="Layer_1-2" data-name="Layer 1"><g id="package"><path class="cls-1" d="M18,21.42H1.9A1.9,1.9,0,0,1,0,19.4L.75,8A1.9,1.9,0,0,1,2.64,6.26h14.6A1.9,1.9,0,0,1,19.14,8l.75,11.37a1.9,1.9,0,0,1-1.89,2ZM2.64,7A1.14,1.14,0,0,0,1.51,8.08L.76,19.45A1.14,1.14,0,0,0,1.9,20.66H18a1.14,1.14,0,0,0,1.13-1.21L18.38,8.08A1.14,1.14,0,0,0,17.24,7Z"/><path class="cls-1" d="M16.2,9.29a.38.38,0,0,1-.38-.38V8.06c0-4-2.64-7.3-5.88-7.3S4.07,4,4.07,8.06v.85a.38.38,0,1,1-.76,0V8.06C3.31,3.61,6.29,0,9.94,0s6.63,3.61,6.63,8.06v.85A.38.38,0,0,1,16.2,9.29Z"/></g></g></g></svg>