<svg xmlns="http://www.w3.org/2000/svg" viewBox="0 0 24.76 16.82"><defs><style>.cls-1{fill:#898b8c;}</style></defs><title>Asset 3</title><g id="Layer_2" data-name="Layer 2"><g id="Layer_1-2" data-name="Layer 1"><g id="VISA"><path id="document" class="cls-1" d="M23.65,0H1.11A1.11,1.11,0,0,0,0,1.11V15.72a1.11,1.11,0,0,0,1.11,1.11H23.65a1.11,1.11,0,0,0,1.11-1.11V1.11A1.11,1.11,0,0,0,23.65,0Zm-.41,15.3H1.52V1.52H23.24Z"/><g id="text"><path class="cls-1" d="M14.15,6.63l1-3.16h-.68l-.53,1.9,0,.13,0,.19,0,.21,0,.18,0-.18,0-.21,0-.19,0-.12-.54-1.9h-.68l1,3.16Z"/><polygon class="cls-1" points="16.72 6.25 16.34 6.07 16.34 4.03 16.72 3.85 16.72 3.47 15.28 3.47 15.28 3.85 15.67 4.03 15.67 6.07 15.28 6.25 15.28 6.63 16.72 6.63 16.72 6.25"/><path class="cls-1" d="M17.9,6.67a1.52,1.52,0,0,0,.46-.06,1,1,0,0,0,.34-.18.78.78,0,0,0,.21-.29A1,1,0,0,0,19,5.75a.89.89,0,0,0-.05-.32.8.8,0,0,0-.15-.25,1.2,1.2,0,0,0-.23-.2l-.3-.18L18,4.68l-.15-.11a.34.34,0,0,1-.09-.12.35.35,0,0,1,0-.14.32.32,0,0,1,.09-.24A.35.35,0,0,1,18.11,4h.15l.16,0,.16.06.18.08L19,3.64l-.22-.1-.22-.07-.22,0-.22,0a1.33,1.33,0,0,0-.41.06.87.87,0,0,0-.31.18.77.77,0,0,0-.2.28,1,1,0,0,0-.07.38.86.86,0,0,0,.07.37.94.94,0,0,0,.18.26,1.2,1.2,0,0,0,.23.18l.22.13.22.12.16.12a.48.48,0,0,1,.11.13.32.32,0,0,1,0,.16.39.39,0,0,1,0,.14.27.27,0,0,1-.07.11.34.34,0,0,1-.13.07l-.19,0-.22,0L17.49,6,17.28,6l-.21-.1v.62a1.6,1.6,0,0,0,.39.14A2,2,0,0,0,17.9,6.67Z"/><path class="cls-1" d="M20.08,5.88h1.09l.22.75h.68L21,3.45h-.82l-1,3.17h.68Zm.36-1.25,0-.07,0-.11,0-.14,0-.15,0-.14,0-.11q0,.08,0,.18l.06.22.06.2,0,.13.2.69h-.77Z"/><rect class="cls-1" x="2.69" y="13.03" width="19.37" height="0.91"/><rect class="cls-1" x="12.38" y="8.58" width="9.68" height="0.91"/><rect class="cls-1" x="12.38" y="10.8" width="9.68" height="0.91"/></g><path id="photo" class="cls-1" d="M2.69,2.88v8.83h8V2.88Zm7.17,7.79H3.54V10h0C3.54,8.81,6,9.53,6,8.19c0-.57-.87-.43-.87-2.46a2.59,2.59,0,0,1,0-.26A1.56,1.56,0,0,1,6.7,3.91h0A1.45,1.45,0,0,1,8,4.75a2,2,0,0,1,.2.73,2.57,2.57,0,0,1,0,.26c0,2-.88,1.89-.87,2.46,0,1.34,2.51.62,2.51,1.77h0v.69Z"/></g></g></g></svg>