<svg xmlns="http://www.w3.org/2000/svg" viewBox="0 0 43.25 29.11"><defs><style>.cls-1{fill:none;stroke:#191919;stroke-miterlimit:22.93;}</style></defs><title>Asset 4</title><g id="Layer_2" data-name="Layer 2"><g id="Layer_1-2" data-name="Layer 1"><path class="cls-1" d="M3.45,24.55,9,24.92m0,0,0,2.76a1,1,0,0,1-1,.94H2.17a1,1,0,0,1-1-.94V14.75a4.74,4.74,0,0,1,.93-3.18l1.24-1.45L.79,9C.6,8.89.46,8.81.51,8.61L.74,7.29a1.32,1.32,0,0,1,1.19-.92H4.44a.46.46,0,0,1,.39.18l.56.75h.28L9.55,1.67A2.27,2.27,0,0,1,11.07.85a161,161,0,0,1,21.12,0,2.27,2.27,0,0,1,1.52.83l3.87,5.63h.28l.56-.75a.47.47,0,0,1,.38-.18h2.51a1.32,1.32,0,0,1,1.2.92l.23,1.32c.06.2-.09.28-.28.37l-2.59,1.15,1.24,1.45A4.74,4.74,0,0,1,42,14.75V27.67a1,1,0,0,1-1,.94H35.29a1,1,0,0,1-1-.94l0-2.76A220.74,220.74,0,0,1,9,24.91ZM5.67,7.31c-.41,1.62,1,1.91,3.25,2a247.49,247.49,0,0,0,25.41,0c2.23-.11,3.66-.4,3.25-2m-32.7,7a49.3,49.3,0,0,0,5.51.85c.3,0,.61.36.49.64l-.25.61a.64.64,0,0,1-.61.46,51.45,51.45,0,0,1-5.39-.39.58.58,0,0,1-.49-.64l.13-1.07A.52.52,0,0,1,4.87,14.32ZM3.38,10.13,4.45,8.87M39.8,24.55l-5.51.37m4.09-10.6a49.38,49.38,0,0,1-5.51.85c-.3,0-.61.36-.49.64l.25.61a.64.64,0,0,0,.61.46,51.44,51.44,0,0,0,5.39-.39.58.58,0,0,0,.49-.64L39,14.78A.52.52,0,0,0,38.38,14.32Zm1.49-4.19L38.8,8.87m-25,6.86a137,137,0,0,0,15.68,0,.8.8,0,0,1,.83.83l-.21,2.56a.88.88,0,0,1-.83.83C24.1,20.19,19,20.17,14,20a.88.88,0,0,1-.83-.83L13,16.57A.8.8,0,0,1,13.78,15.73Z"/></g></g></svg>