<svg xmlns="http://www.w3.org/2000/svg" viewBox="0 0 43.52 83.48"><defs><style>.cls-1{fill:#002b5e;}</style></defs><title>Asset 1</title><g id="Layer_2" data-name="Layer 2"><g id="Layer_1-2" data-name="Layer 1"><path class="cls-1" d="M35.65,28.69a1.65,1.65,0,0,0-1.17-.48,1.87,1.87,0,0,0-1.31.55l-9,9a1.76,1.76,0,0,0-.07,2.48L28,44.07a1.65,1.65,0,0,0,1.17.48A1.87,1.87,0,0,0,30.46,44l9-9a1.76,1.76,0,0,0,.07-2.49Zm2.87,5.41-9,9a.59.59,0,0,1-.41.18.39.39,0,0,1-.28-.11L25,39.35a.5.5,0,0,1,.07-.69l9-9a.59.59,0,0,1,.41-.18.38.38,0,0,1,.28.11l3.84,3.82a.5.5,0,0,1-.07.69"/><path class="cls-1" d="M12.48,54.14a2.15,2.15,0,0,0-1.5-.65A1.67,1.67,0,0,0,9.78,54L5.66,58.09a1.92,1.92,0,0,0,.17,2.7L16.47,71.42a2.15,2.15,0,0,0,1.5.65,1.68,1.68,0,0,0,1.2-.48l4.12-4.12a1.92,1.92,0,0,0-.17-2.7Zm9.91,12.44-4.12,4.12a.41.41,0,0,1-.3.11.89.89,0,0,1-.6-.28L6.73,59.89c-.28-.29-.36-.71-.17-.9l4.12-4.12a.41.41,0,0,1,.3-.11.89.89,0,0,1,.6.28L22.22,65.67c.28.28.36.7.17.9"/><path class="cls-1" d="M22.07,33.19a6,6,0,1,0-6-6,6,6,0,0,0,6,6m0-10.66a4.69,4.69,0,1,1-4.69,4.69,4.7,4.7,0,0,1,4.69-4.69"/><path class="cls-1" d="M38.32,17.51h-5.2V7.83c0-2.65-1.27-4.73-2.9-4.78V1.28C30.21.55,29.49,0,28.54,0H15c-1,0-1.68.55-1.68,1.28V3.05c-1.63,0-2.9,2.13-2.9,4.78v9.68H5.2A5.29,5.29,0,0,0,0,22.88V71.09a5.29,5.29,0,0,0,5.2,5.37h1v4.25a2.77,2.77,0,0,0,5.54,0V76.46h20v4.25a2.77,2.77,0,0,0,5.54,0V76.46h1a5.29,5.29,0,0,0,5.2-5.37V22.88a5.29,5.29,0,0,0-5.2-5.37M14.58,1.36A.82.82,0,0,1,15,1.27H28.54a.81.81,0,0,1,.41.09V5.49a.8.8,0,0,1-.41.09H15a.8.8,0,0,1-.41-.09Zm-2.9,6.47c0-2,.85-3.44,1.63-3.51V5.58c0,.73.72,1.27,1.68,1.27H28.54c1,0,1.68-.55,1.68-1.27V4.32c.78.06,1.63,1.54,1.63,3.51v9.68H11.67ZM10.49,80.71a1.5,1.5,0,1,1-3,0V76.46h3Zm25.54,0a1.5,1.5,0,0,1-1.5,1.5,1.5,1.5,0,0,1-1.5-1.5V76.46h3Zm6.22-9.62a4,4,0,0,1-3.93,4.1H5.2a4,4,0,0,1-3.93-4.1V22.88a4,4,0,0,1,3.93-4.1H38.32a4,4,0,0,1,3.93,4.1Z"/></g></g></svg>