<svg xmlns="http://www.w3.org/2000/svg" viewBox="0 0 29.15 24.58"><defs><style>.cls-1{fill:#0f0f0f;}</style></defs><title>Asset 3</title><g id="Layer_2" data-name="Layer 2"><g id="Layer_1-2" data-name="Layer 1"><path class="cls-1" d="M28.38,24.58H.77A.77.77,0,0,1,.77,23H28.38a.77.77,0,0,1,0,1.54"/><polygon class="cls-1" points="8.34 0 8.75 0.84 9.68 0.98 9.01 1.63 9.17 2.55 8.34 2.12 7.51 2.55 7.67 1.63 6.99 0.98 7.92 0.84 8.34 0"/><polygon class="cls-1" points="11.46 0 11.87 0.84 12.8 0.98 12.13 1.63 12.29 2.55 11.46 2.12 10.63 2.55 10.79 1.63 10.12 0.98 11.04 0.84 11.46 0"/><polygon class="cls-1" points="14.58 0 14.99 0.84 15.92 0.98 15.25 1.63 15.41 2.55 14.58 2.12 13.75 2.55 13.91 1.63 13.24 0.98 14.16 0.84 14.58 0"/><polygon class="cls-1" points="17.7 0 18.11 0.84 19.04 0.98 18.37 1.63 18.53 2.55 17.7 2.12 16.87 2.55 17.03 1.63 16.36 0.98 17.28 0.84 17.7 0"/><polygon class="cls-1" points="20.82 0 21.23 0.84 22.16 0.98 21.49 1.63 21.65 2.55 20.82 2.12 19.99 2.55 20.15 1.63 19.48 0.98 20.41 0.84 20.82 0"/><path class="cls-1" d="M22.09,3.66h-15a.71.71,0,0,0-.71.71V22.11h5.15V19.48A.53.53,0,0,1,12,19h5.08a.53.53,0,0,1,.53.53v2.62H22.8V4.37a.71.71,0,0,0-.71-.71M10.45,16.35a.37.37,0,0,1-.37.38H8.19a.38.38,0,0,1-.38-.37V15a.38.38,0,0,1,.38-.37h1.88a.37.37,0,0,1,.37.38Zm0-3.06a.37.37,0,0,1-.37.38H8.19a.38.38,0,0,1-.38-.37V12a.38.38,0,0,1,.38-.37h1.88a.37.37,0,0,1,.37.38Zm0-3.06a.37.37,0,0,1-.37.38H8.19a.37.37,0,0,1-.38-.37V8.92a.38.38,0,0,1,.38-.37h1.88a.37.37,0,0,1,.37.38Zm0-3.06a.38.38,0,0,1-.37.38H8.19a.38.38,0,0,1-.38-.37V5.85a.38.38,0,0,1,.38-.37h1.88a.37.37,0,0,1,.37.38Zm3.64,9.19a.38.38,0,0,1-.37.38H11.83a.37.37,0,0,1-.37-.37V15a.37.37,0,0,1,.37-.37h1.88a.38.38,0,0,1,.38.38Zm0-3.06a.38.38,0,0,1-.37.38H11.83a.37.37,0,0,1-.37-.37V12a.37.37,0,0,1,.37-.37h1.88a.38.38,0,0,1,.38.38Zm0-3.06a.37.37,0,0,1-.37.38H11.83a.37.37,0,0,1-.37-.37V8.92a.37.37,0,0,1,.37-.37h1.88a.38.38,0,0,1,.38.38Zm0-3.06a.38.38,0,0,1-.37.38H11.83a.38.38,0,0,1-.37-.37V5.85a.37.37,0,0,1,.37-.37h1.88a.38.38,0,0,1,.38.38Zm3.61,9.19a.38.38,0,0,1-.37.38H15.44a.38.38,0,0,1-.37-.37V15a.38.38,0,0,1,.38-.37h1.88a.38.38,0,0,1,.38.38Zm0-3.06a.38.38,0,0,1-.37.38H15.44a.38.38,0,0,1-.37-.37V12a.38.38,0,0,1,.38-.37h1.88a.38.38,0,0,1,.38.38Zm0-3.06a.37.37,0,0,1-.37.38H15.44a.37.37,0,0,1-.37-.37V8.92a.38.38,0,0,1,.38-.37h1.88a.38.38,0,0,1,.38.38Zm0-3.06a.38.38,0,0,1-.37.38H15.44a.38.38,0,0,1-.37-.37V5.85a.38.38,0,0,1,.38-.37h1.88a.38.38,0,0,1,.38.38Zm3.64,9.19a.38.38,0,0,1-.37.38H19.08a.38.38,0,0,1-.37-.37V15a.38.38,0,0,1,.38-.37H21a.38.38,0,0,1,.38.38Zm0-3.06a.38.38,0,0,1-.37.38H19.08a.38.38,0,0,1-.37-.37V12a.38.38,0,0,1,.38-.37H21a.38.38,0,0,1,.38.38Zm0-3.06a.37.37,0,0,1-.37.38H19.08a.37.37,0,0,1-.37-.37V8.92a.38.38,0,0,1,.38-.37H21a.38.38,0,0,1,.38.38Zm0-3.06a.38.38,0,0,1-.37.38H19.08a.38.38,0,0,1-.37-.37V5.85a.38.38,0,0,1,.38-.37H21a.38.38,0,0,1,.38.38Z"/><path class="cls-1" d="M26.58,12.49H23.72v9.62h3.54V13.18a.69.69,0,0,0-.69-.69"/><path class="cls-1" d="M2.58,12.49a.69.69,0,0,0-.69.69v8.93H5.43V12.49Z"/></g></g></svg>