<svg xmlns="http://www.w3.org/2000/svg" viewBox="0 0 29.17 25.61"><defs><style>.cls-1,.cls-2{fill:none;stroke:#898b8c;}.cls-1{stroke-miterlimit:10;}.cls-2{stroke-linejoin:round;}</style></defs><title>Asset 7</title><g id="Layer_2" data-name="Layer 2"><g id="Layer_1-2" data-name="Layer 1"><line class="cls-1" x1="18.87" y1="25.61" x2="18.87" y2="5.4"/><line class="cls-1" x1="15.81" y1="11.52" x2="18.87" y2="14.59"/><line class="cls-1" x1="21.32" y1="8.46" x2="18.87" y2="10.91"/><line class="cls-2" x1="1.11" y1="23.77" x2="1.11" y2="25.61"/><line class="cls-2" x1="1.72" y1="15.2" x2="1.72" y2="20.1"/><line class="cls-2" x1="13.97" y1="23.77" x2="13.97" y2="25.61"/><line class="cls-2" x1="13.36" y1="15.2" x2="13.36" y2="20.1"/><rect class="cls-2" x="1.72" y="16.42" width="11.64" height="2.45"/><rect class="cls-2" x="0.5" y="21.32" width="14.09" height="2.45"/><path class="cls-1" d="M15.2,17h7.66A5.81,5.81,0,0,0,24.34,5.6a5.81,5.81,0,0,0-11.54,0,5.81,5.81,0,0,0-3.26,9"/></g></g></svg>