<svg xmlns="http://www.w3.org/2000/svg" viewBox="0 0 28.96 19.6"><defs><style>.cls-1{fill:none;stroke:#8b8b8b;stroke-miterlimit:22.93;fill-rule:evenodd;}</style></defs><title>Asset 8</title><g id="Layer_2" data-name="Layer 2"><g id="Layer_1-2" data-name="Layer 1"><path class="cls-1" d="M2.45,16.42l3.65.24m0,0,0,1.83a.63.63,0,0,1-.64.62H1.61A.63.63,0,0,1,1,18.48V9.93a3.13,3.13,0,0,1,.62-2.1l.82-1L.69,6.11C.57,6.05.47,6,.51,5.87L.66,5a.87.87,0,0,1,.79-.61H3.11a.31.31,0,0,1,.26.12L3.74,5h.19L6.49,1.28a1.5,1.5,0,0,1,1-.55,106.41,106.41,0,0,1,14,0,1.5,1.5,0,0,1,1,.55L25,5h.19l.37-.49a.31.31,0,0,1,.26-.12h1.66A.87.87,0,0,1,28.3,5l.15.87c0,.13-.06.19-.18.24l-1.72.76.82,1A3.14,3.14,0,0,1,28,9.93v8.55a.63.63,0,0,1-.64.62H23.52a.63.63,0,0,1-.64-.62l0-1.83a145.78,145.78,0,0,1-16.76,0ZM3.92,5c-.27,1.07.67,1.27,2.15,1.34a163.43,163.43,0,0,0,16.81,0C24.37,6.27,25.31,6.08,25,5M3.39,9.64A32.49,32.49,0,0,0,7,10.21c.2,0,.4.24.33.42L7.2,11a.42.42,0,0,1-.4.31,34.16,34.16,0,0,1-3.57-.26.38.38,0,0,1-.33-.42L3,10a.34.34,0,0,1,.4-.31Zm-1-2.77L3.11,6M26.51,16.42l-3.65.24m2.7-7a32.51,32.51,0,0,1-3.65.56c-.2,0-.4.24-.33.42l.16.4a.42.42,0,0,0,.4.31,34.25,34.25,0,0,0,3.57-.26.38.38,0,0,0,.33-.42L26,10a.34.34,0,0,0-.4-.31Zm1-2.77L25.85,6M9.29,10.58a91,91,0,0,0,10.38,0,.53.53,0,0,1,.55.55l-.14,1.69a.58.58,0,0,1-.55.55c-3.41.15-6.78.14-10.1,0a.58.58,0,0,1-.55-.55l-.14-1.69A.53.53,0,0,1,9.29,10.58Z"/></g></g></svg>