<svg xmlns="http://www.w3.org/2000/svg" viewBox="0 0 26.14 21.67"><defs><style>.cls-1{fill:#898b8c;}</style></defs><title>Asset 6</title><g id="Layer_2" data-name="Layer 2"><g id="Layer_1-2" data-name="Layer 1"><g id="COUPLE_TAKING_SELFIE" data-name="COUPLE TAKING SELFIE"><g id="stick"><path id="base" class="cls-1" d="M2.84,2.46v0a.13.13,0,0,1-.11.14l-.16,0,0,.17A.13.13,0,0,1,2.48,3L1.88,3a.13.13,0,0,1-.14-.11l0-.17-.16,0a.13.13,0,0,1-.14-.11v0Z"/><g id="stick-2" data-name="stick"><path class="cls-1" d="M4.45,6.74a.42.42,0,0,1,.76-.17L6.27,8.1l0,0,2,2.93a.42.42,0,0,1-.11.59l-.12.06-.12,0a.42.42,0,0,1-.35-.18L6.58,10l0,0-2-2.93A.42.42,0,0,1,4.45,6.74Z"/><path class="cls-1" d="M2.48,3h0L4.9,6.4h0a.42.42,0,0,0-.41.31L1.89,3Z"/></g></g><g id="mobile_phone" data-name="mobile phone"><path id="mobile_phone-2" data-name="mobile phone" class="cls-1" d="M0,.82.15,2.27a.47.47,0,0,0,.52.42l2.92-.3A.47.47,0,0,0,4,1.87L3.86.42A.47.47,0,0,0,3.35,0L.42.31A.47.47,0,0,0,0,.82Zm.26,0A.25.25,0,0,1,.75.78l0,.31a.25.25,0,1,1-.49.05Z"/><path id="camera" class="cls-1" d="M.53,1A.17.17,0,1,0,.35.88.17.17,0,0,0,.53,1Z"/></g><g id="woman"><path id="body" class="cls-1" d="M7.21,11.07a.72.72,0,0,1,.2-.34l3.3-3.18a3.71,3.71,0,0,1,2-1.18h0l0,0,0,0,0,0,0,0,0,0,0,0,0,0,0,0,0,0,0,0,0,0,0,0,0,0,0,0,0,0,0,0,0,0,0,0,0,0h0l0,0h.9l0,0h0l0,0,0,0,0,0,0,0,0,0,0,0,0,0,0,0,0,0,0,0,0,0,0,0,0,0,0,0,0,0,0,0,0,0,0,0,0,0h0a1.54,1.54,0,0,1,.68.29,4.13,4.13,0,0,1,.86.84,5.83,5.83,0,0,1,.38.64l.12.23.2.36,1.08,2h0l.65,1.18,0,0,.49.89a.71.71,0,0,1,.09.29.77.77,0,0,1,0,.1.71.71,0,0,1-.2.46l-.11.09a.6.6,0,0,1-.19.08l-.17,0a.61.61,0,0,1-.5-.32l-.32-.58h0L16.35,10h0l-.16-.3h0l-.68-1.25,0,.13,1.52,5.2a.44.44,0,0,1-.08.4.5.5,0,0,1-.39.18h-.94v3.92h0v2.56h0a.84.84,0,0,1-.38.71h0l0,0h0l0,0h-.55l0,0h0l0,0h0a.84.84,0,0,1-.37-.71h0V18.29h0V15.06h0v-.7h-.67v3.92h0v2.56h0a.84.84,0,0,1-.37.71h0l0,0h0l0,0h-.55l0,0h0l0,0h0a.84.84,0,0,1-.38-.71h0V18.29h0V15.46h0V14.36H11a.5.5,0,0,1-.39-.18.45.45,0,0,1-.08-.4l1.54-5.27.11-.6-4,3.82a.61.61,0,0,1-.57.16l-.15-.07a.59.59,0,0,1-.16-.14l-.07-.11A.71.71,0,0,1,7.21,11.07Z"/><circle id="head" class="cls-1" cx="13.8" cy="4.05" r="2.05"/></g><g id="man"><circle id="head-2" data-name="head" class="cls-1" cx="22.15" cy="3.37" r="2.08"/><path id="body-2" data-name="body" class="cls-1" d="M18.16,8.35q0-.12,0-.23c0-.83.29-1.85,1.2-2.1a4.61,4.61,0,0,1,.5-.05h4.57a4.61,4.61,0,0,1,.5.05c.91.25,1.18,1.27,1.2,2.1q0,.12,0,.23a.66.66,0,0,1,0,.11v4.64a.7.7,0,1,1-1.39,0V8.46h-.52q0,2.49,0,5v7.39a.85.85,0,0,1-.85.85h0a.85.85,0,0,1-.85-.85V13.43h-.75v7.39a.85.85,0,0,1-.85.85h0a.85.85,0,0,1-.85-.85V8.45h-.53v4.64a.7.7,0,1,1-1.39,0V8.46A.68.68,0,0,1,18.16,8.35Z"/></g></g></g></g></svg>