<svg xmlns="http://www.w3.org/2000/svg" viewBox="0 0 29.76 21.41"><title>wifi-icon</title><g id="Layer_2" data-name="Layer 2"><g id="Layer_1-2" data-name="Layer 1"><path d="M29.1,7.36A19,19,0,0,0,.65,7.21L0,6.63a19.86,19.86,0,0,1,29.76.16Z"/><path d="M25,11.89A13,13,0,0,0,4.65,11.8L4,11.26a13.84,13.84,0,0,1,21.76.1Z"/><path d="M21,16.52a7.06,7.06,0,0,0-12.35-.15l-.76-.43a7.93,7.93,0,0,1,13.88.17Z"/><path d="M14.81,21.41a1.55,1.55,0,1,1,1.55-1.55A1.55,1.55,0,0,1,14.81,21.41Zm0-2.23a.68.68,0,1,0,.68.68A.68.68,0,0,0,14.81,19.18Z"/></g></g></svg>