<svg xmlns="http://www.w3.org/2000/svg" viewBox="0 0 24.84 44.39"><title>building</title><g id="Layer_2" data-name="Layer 2"><g id="Layer_1-2" data-name="Layer 1"><path d="M23.59,44.39H1.26A1.26,1.26,0,0,1,0,43.13v-.56a1.26,1.26,0,0,1,1.26-1.26H23.59a1.26,1.26,0,0,1,1.26,1.26v.56A1.26,1.26,0,0,1,23.59,44.39ZM1.26,42.15a.42.42,0,0,0-.42.42v.56a.42.42,0,0,0,.42.42H23.59a.42.42,0,0,0,.42-.42v-.56a.42.42,0,0,0-.42-.42Z"/><path d="M7.68,40.69a.42.42,0,0,1-.42-.42v-33a.42.42,0,0,0-.42-.42H6.45A.42.42,0,0,0,6,7.26v33a.42.42,0,1,1-.84,0v-33A1.26,1.26,0,0,1,6.45,6h.39A1.26,1.26,0,0,1,8.1,7.26v33A.42.42,0,0,1,7.68,40.69Z"/><path d="M6.64,5.3a.42.42,0,0,1-.42-.42V.42a.42.42,0,1,1,.84,0V4.89A.42.42,0,0,1,6.64,5.3Z"/><path d="M17.9,40.69h-.05a.42.42,0,0,1-.37-.47,59.13,59.13,0,0,0,.42-7.1c0-10.14-5.63-19-9-23.35a.42.42,0,0,1,.66-.51C13,13.7,18.74,22.72,18.74,33.11a59.94,59.94,0,0,1-.43,7.2A.42.42,0,0,1,17.9,40.69Z"/><path d="M16.33,40.69h-.05a.42.42,0,0,1-.37-.47,59.13,59.13,0,0,0,.42-7.1c0-8.62-4-16.29-7.43-21.21a.42.42,0,1,1,.69-.48c3.46,5,7.58,12.85,7.58,21.69a60,60,0,0,1-.43,7.2A.42.42,0,0,1,16.33,40.69Z"/><path d="M22.23,40.69h-.07a.42.42,0,0,1-.34-.48,42.83,42.83,0,0,0,.58-7.08c0-7.55-4.41-14.36-8.1-18.74a.42.42,0,1,1,.64-.54c3.79,4.49,8.3,11.48,8.3,19.28a43.7,43.7,0,0,1-.59,7.22A.42.42,0,0,1,22.23,40.69Z"/><path d="M23.84,40.69h-.07a.42.42,0,0,1-.34-.48A42.83,42.83,0,0,0,24,33.11c0-8.32-5.27-15.76-9.7-20.54a.42.42,0,1,1,.61-.57c4.53,4.89,9.92,12.52,9.92,21.11a43.78,43.78,0,0,1-.59,7.22A.42.42,0,0,1,23.84,40.69Z"/><path d="M9.25,22.55a.42.42,0,0,1-.18-.8l2.62-1.21a.42.42,0,0,1,.35.76L9.42,22.51A.42.42,0,0,1,9.25,22.55Z"/><path d="M9.25,29.78a.42.42,0,0,1-.3-.71l4.54-4.72a.42.42,0,1,1,.6.58L9.55,29.65A.42.42,0,0,1,9.25,29.78Z"/><path d="M9.25,39.22a.42.42,0,0,1-.33-.68l5.37-6.83a.42.42,0,1,1,.66.52L9.58,39.06A.42.42,0,0,1,9.25,39.22Z"/><path d="M11.86,20.13H9.25a.42.42,0,1,1,0-.84h2.62a.42.42,0,1,1,0,.84Z"/><path d="M13.78,23.76H9.25a.42.42,0,1,1,0-.84h4.54a.42.42,0,0,1,0,.84Z"/><path d="M14.62,31.23H9.25a.42.42,0,0,1,0-.84h5.37a.42.42,0,1,1,0,.84Z"/><path d="M14.62,40.69H9.25a.42.42,0,0,1,0-.84h5.37a.42.42,0,1,1,0,.84Z"/></g></g></svg>