<svg xmlns="http://www.w3.org/2000/svg" viewBox="0 0 45.16 31.95"><title>camel</title><g id="Layer_2" data-name="Layer 2"><g id="Layer_1-2" data-name="Layer 1"><path d="M44.74,17.44c-3.5,0-6.34-3.39-6.34-7.55a.42.42,0,1,1,.84,0c0,3.7,2.47,6.71,5.51,6.71a.42.42,0,0,1,0,.84Z"/><path d="M16.81,31.95H15a.42.42,0,0,1,0-.84h1.83a.42.42,0,1,1,0,.84Z"/><path d="M16.81,31.95H15a.42.42,0,0,1-.4-.55l1.79-5.26-.31-1.08a.42.42,0,0,1,0-.32l.65-1.19.68-6.22a.42.42,0,0,1,.46-.37.42.42,0,0,1,.37.46l-.69,6.31a.42.42,0,0,1,0,.16L16.91,25l.3,1a.42.42,0,0,1,0,.25l-1.64,4.84h.92l1.24-4.79a.43.43,0,0,1,.11-.2l.74-.71-.39-1.33a.42.42,0,0,1,0-.23l1.49-5.1a.42.42,0,1,1,.8.24L19,24l.42,1.46a.42.42,0,0,1-.11.42l-.83.81-1.29,5A.42.42,0,0,1,16.81,31.95Z"/><path d="M28.15,31.61H26.78a.42.42,0,0,1-.41-.33L25.3,26.17l-1-1.15a.42.42,0,0,1-.1-.27V23.31L22,18.2a8.57,8.57,0,0,1-4.59-2.07,7.91,7.91,0,0,1-1.2.52A8.54,8.54,0,0,1,5.4,11.35a2.83,2.83,0,0,0-3.3-1.8H2a1.47,1.47,0,0,1-.36,0,1.68,1.68,0,0,1,0-3.37H4.16a2.4,2.4,0,0,0,1.33-.39l.06,0,0,0,.06,0,.09-.06a2,2,0,0,1,.66-.25,2.06,2.06,0,0,1,2.4,1.49h0l0,.07h0a.51.51,0,0,1,0,.1h0a5.72,5.72,0,0,0,5.55,4.44,5.27,5.27,0,0,0,.66,0,.39.39,0,0,1,.17-.07,4.43,4.43,0,0,0,3.41-3h0v0a6.89,6.89,0,0,1,6.61-4.89c7.89,0,14.07,3,14.07,6.9,0,4.48,1.73,8.36,4.2,9.43a.42.42,0,0,1,.25.43l-.7,7.14.65.74a.42.42,0,0,1,0,.53L42.64,30a.42.42,0,0,1-.36.16A.42.42,0,0,1,42,30l-1.07-1.81a.41.41,0,0,1-.06-.21V22.42l-4.55-2.48a.42.42,0,0,1-.19-.21l-1.64-4.09a22.5,22.5,0,0,1-7.26,1.59,7.49,7.49,0,0,1-1.3.58l-.43.13L26.62,23l.77,1a.42.42,0,0,1,.07.35l-.26,1.13,1.35,5.55a.42.42,0,0,1-.41.52Zm-1-.84h.5l-1.25-5.13a.41.41,0,0,1,0-.19l.24-1-.71-.94a.43.43,0,0,1-.07-.16l-1.28-5.59a.42.42,0,0,1,.32-.5,6.6,6.6,0,0,0,.75-.21,6.75,6.75,0,0,0,1.24-.56.42.42,0,0,1,.21-.06,21.29,21.29,0,0,0,7.43-1.7.4.4,0,0,1,.33,0,.42.42,0,0,1,.23.23l1.75,4.35,4.64,2.52a.42.42,0,0,1,.22.37v5.68l.7,1.18.48-.62-.54-.61a.42.42,0,0,1-.1-.32l.69-7c-2.62-1.35-4.43-5.42-4.43-10.06,0-3.29-6.06-6.07-13.24-6.07a6.05,6.05,0,0,0-5.81,4.3h0v0a5.2,5.2,0,0,1-3.86,3.56.41.41,0,0,1-.2.08,6.25,6.25,0,0,1-1,.08A6.56,6.56,0,0,1,8,7.28l0-.11v0a1.24,1.24,0,0,0-1.43-.88,1.19,1.19,0,0,0-.37.14l-.06,0L6,6.52a.33.33,0,0,1-.26.15,3.32,3.32,0,0,1-1.8.4H1.68a.84.84,0,0,0-.84.85.86.86,0,0,0,1,.83h.05l.07,0a3.63,3.63,0,0,1,4.24,2.36A7.7,7.7,0,0,0,16,15.86a7.44,7.44,0,0,0,1.32-.6.42.42,0,0,1,.49.06,7.72,7.72,0,0,0,4.57,2.08.42.42,0,0,1,.34.25L25,23.06a.41.41,0,0,1,0,.17V24.6L26,25.71a.41.41,0,0,1,.09.18Z"/><path d="M8.41,7.61A.42.42,0,0,1,8,7.28H8v0H8l0-.1a.42.42,0,0,1,.81-.21.32.32,0,0,1,0,.08.42.42,0,0,1,0,.16.41.41,0,0,1-.43.42Z"/><path d="M37.54,24.2a.42.42,0,0,1-.36-.2l-3-4.93a.42.42,0,1,1,.71-.44l3,4.93a.42.42,0,0,1-.14.58A.41.41,0,0,1,37.54,24.2Z"/><path d="M37.08,30.46h0a.42.42,0,0,1-.39-.45l.46-6.26a.43.43,0,0,1,.45-.39.42.42,0,0,1,.39.45l-.46,6.26A.42.42,0,0,1,37.08,30.46Z"/><path d="M36.47,31.61A.42.42,0,0,1,36.1,31l.61-1.15a.42.42,0,0,1,.74.39l-.61,1.15A.42.42,0,0,1,36.47,31.61Z"/><path d="M38.57,31.61h-2.1a.42.42,0,0,1,0-.84h2.1a.42.42,0,0,1,0,.84Z"/><path d="M38.57,31.61a.42.42,0,0,1-.42-.42V29.51a.42.42,0,1,1,.84,0v1.68A.42.42,0,0,1,38.57,31.61Z"/><path d="M38.57,29.92h-.1a.42.42,0,0,1-.3-.51l1.22-4.85a.42.42,0,1,1,.81.2L39,29.61A.42.42,0,0,1,38.57,29.92Z"/><path d="M39.79,25.07a.42.42,0,0,1-.38-.23l-1.22-2.48a.42.42,0,0,1,.75-.37l1.22,2.48a.42.42,0,0,1-.38.6Z"/><path d="M22.73,14.48a.42.42,0,0,1-.41-.37l-.83-6.87a.42.42,0,0,1,.83-.1l.78,6.46,11.31-1.18L34.1,7.21a.42.42,0,0,1,.39-.44.41.41,0,0,1,.44.39l.33,5.61a.42.42,0,0,1-.38.44L22.78,14.47Z"/><path d="M20.76,4.33a.42.42,0,0,1-.22-.77l1.89-1.17V1.2a1.2,1.2,0,1,1,2.4,0v1h3.24v-1a1.2,1.2,0,0,1,2.4,0V2.28l2.07.48a.42.42,0,1,1-.19.82L30,3a.42.42,0,0,1-.32-.41V1.2a.36.36,0,0,0-.73,0V2.62a.42.42,0,0,1-.42.42H24.41A.42.42,0,0,1,24,2.62V1.2a.36.36,0,1,0-.73,0V2.62a.42.42,0,0,1-.2.35L21,4.26A.42.42,0,0,1,20.76,4.33Z"/></g></g></svg>