<svg xmlns="http://www.w3.org/2000/svg" viewBox="0 0 41.93 34.15"><title>plate</title><g id="Layer_2" data-name="Layer 2"><g id="Layer_1-2" data-name="Layer 1"><path d="M41.78,30.89c-.74-4-1.13-14.95-1.14-15.4.31-3.07,1.22-13.21-.14-14.71a.92.92,0,0,0-.7-.33,1.23,1.23,0,0,0-.91.48C34.2,6.13,37.41,14.4,37.83,15.41c.07,1.26.58,11.63-.13,15.46a2.36,2.36,0,0,0,.17,2,2.12,2.12,0,0,0,1.87.8,2.12,2.12,0,0,0,1.88-.8A2.33,2.33,0,0,0,41.78,30.89Zm-2,2.14a1.51,1.51,0,0,1-1.32-.52,1.73,1.73,0,0,1-.08-1.42l0-.08c.73-3.93.2-14.46.14-15.65a.57.57,0,0,0,0-.18c-.37-.89-3.51-8.87.93-13.79a.64.64,0,0,1,.42-.26.28.28,0,0,1,.21.11c.73.81.72,6.78,0,14.2a.52.52,0,0,0,0,.07C40,16.67,40.39,27,41.13,31l0,.08a1.73,1.73,0,0,1-.08,1.42A1.52,1.52,0,0,1,39.74,33Z"/><path d="M21.21,6.64A10.43,10.43,0,1,0,31.64,17.07,10.45,10.45,0,0,0,21.21,6.64Zm0,20.21A9.77,9.77,0,1,1,31,17.07,9.79,9.79,0,0,1,21.21,26.85Z"/><path d="M21.21,4.9A12.18,12.18,0,1,0,33.39,17.08,12.19,12.19,0,0,0,21.21,4.9Zm0,23.65A11.47,11.47,0,1,1,32.68,17.08,11.48,11.48,0,0,1,21.21,28.55Z"/><path d="M4.61,14.28a3.22,3.22,0,0,1,.81-2.54,11.14,11.14,0,0,0,.91-1.34,4.21,4.21,0,0,0,.42-1.84V3a1,1,0,0,0-.88-1.1A1,1,0,0,0,5,3V8.57a.36.36,0,1,1-.72,0V3a1,1,0,0,0-.88-1.1A1,1,0,0,0,2.48,3V8.57a.36.36,0,0,1-.72,0V3A1,1,0,0,0,.88,1.9,1,1,0,0,0,0,3V8.57s0,0,0,.05a4.11,4.11,0,0,0,.41,1.79,11.09,11.09,0,0,0,.91,1.35,3.18,3.18,0,0,1,.8,2.53c0,.49,0,12-.62,16.31a2.92,2.92,0,0,0,.33,2.28,1.84,1.84,0,0,0,1.53.68,1.83,1.83,0,0,0,1.53-.67,2.91,2.91,0,0,0,.33-2.27C4.61,26.24,4.61,14.77,4.61,14.28ZM3.37,32.89a1.21,1.21,0,0,1-1-.42,2.31,2.31,0,0,1-.21-1.73c.63-4.44.64-16,.64-16.46a3.83,3.83,0,0,0-.94-2.94A10.54,10.54,0,0,1,1,10.08,3.55,3.55,0,0,1,.66,8.59V3c0-.26.12-.44.22-.44s.22.18.22.44V8.57a1,1,0,0,0,2,0V3c0-.26.12-.44.22-.44s.22.18.22.44V8.57a1,1,0,1,0,2,0V3c0-.26.11-.44.22-.44s.22.18.22.44V8.56a3.59,3.59,0,0,1-.33,1.52,10.64,10.64,0,0,1-.85,1.26,3.84,3.84,0,0,0-.94,2.94c0,.49,0,12,.63,16.43a2.33,2.33,0,0,1-.2,1.76A1.2,1.2,0,0,1,3.37,32.89Z"/><path d="M21.21.66A16.46,16.46,0,0,1,35.51,9l.2-.06c0-.3,0-.6,0-.9V8l0,0A17.06,17.06,0,0,0,7.44,7l0,0V8.17l.19-.29A16.42,16.42,0,0,1,21.21.66Z"/><path d="M37.14,21A16.41,16.41,0,0,1,5.61,22.18l-.21,0c0,.47,0,.94,0,1.41v0a17.07,17.07,0,0,0,31.92-1.09v0c0-.51,0-1,0-1.5Z"/></g></g></svg>