<svg xmlns="http://www.w3.org/2000/svg" viewBox="0 0 17.19 11.22"><defs><style>.cls-1{fill:#0f6bb7;}</style></defs><title>mail-blue</title><g id="Layer_2" data-name="Layer 2"><g id="Layer_1-2" data-name="Layer 1"><path class="cls-1" d="M16.82,11.22H.37A.37.37,0,0,1,0,10.84V.37A.37.37,0,0,1,.37,0H16.82a.37.37,0,0,1,.37.37V10.84A.37.37,0,0,1,16.82,11.22Zm-.37-.74-.2-.57L10.65,6,8.9,7.21a.59.59,0,0,1-.61,0L6.54,6,1,9.89l-.23.59Zm-5.15-4.9,5.15,3.57V2.06ZM.74,2.06V9.15L5.89,5.57ZM8.29,6.31a.59.59,0,0,0,.61,0l7.29-5,.26-.6H.74l.18.54Z"/></g></g></svg>