<svg xmlns="http://www.w3.org/2000/svg" viewBox="0 0 18.25 17.76"><defs><style>.cls-1{fill:#0f6bb7;}</style></defs><title>phone-blue</title><g id="Layer_2" data-name="Layer 2"><g id="Layer_1-2" data-name="Layer 1"><path class="cls-1" d="M16.62,2.43h-10V1.55A1.6,1.6,0,0,0,5,0H2.89A1.6,1.6,0,0,0,1.26,1.55v.92A1.63,1.63,0,0,0,0,4.06V14.51a1.63,1.63,0,0,0,1.26,1.58v.11a1.6,1.6,0,0,0,1.63,1.55H5a1.6,1.6,0,0,0,1.63-1.55v-.07h10a1.63,1.63,0,0,0,1.63-1.63V4.06A1.63,1.63,0,0,0,16.62,2.43Zm-15.35,13a1,1,0,0,1-.61-.9V4.06a1,1,0,0,1,.61-.9Zm4.7.8a.94.94,0,0,1-1,.9H2.89a.94.94,0,0,1-1-.9V1.55a.94.94,0,0,1,1-.9H5a.94.94,0,0,1,1,.9Zm11.63-1.7a1,1,0,0,1-1,1h-10V3.08h10a1,1,0,0,1,1,1Z"/><path class="cls-1" d="M8.92,6.65h6.41a.33.33,0,0,0,.33-.33V4.46a.33.33,0,0,0-.33-.33H8.92a.33.33,0,0,0-.33.33V6.33A.33.33,0,0,0,8.92,6.65Zm.33-1.87H15V6H9.25Z"/><path class="cls-1" d="M9.37,7a1.1,1.1,0,1,0,1.1,1.1A1.1,1.1,0,0,0,9.37,7Zm0,1.54a.44.44,0,1,1,.44-.44A.44.44,0,0,1,9.37,8.51Z"/><path class="cls-1" d="M12.07,7a1.1,1.1,0,1,0,1.1,1.1A1.1,1.1,0,0,0,12.07,7Zm0,1.54a.44.44,0,1,1,.44-.44A.44.44,0,0,1,12.07,8.51Z"/><path class="cls-1" d="M14.77,7a1.1,1.1,0,1,0,1.1,1.1A1.1,1.1,0,0,0,14.77,7Zm0,1.54a.44.44,0,1,1,.44-.44A.44.44,0,0,1,14.77,8.51Z"/><path class="cls-1" d="M9.37,9.44a1.1,1.1,0,1,0,1.1,1.1A1.1,1.1,0,0,0,9.37,9.44Zm0,1.54a.44.44,0,1,1,.44-.44A.44.44,0,0,1,9.37,11Z"/><path class="cls-1" d="M12.07,9.44a1.1,1.1,0,1,0,1.1,1.1A1.1,1.1,0,0,0,12.07,9.44Zm0,1.54a.44.44,0,1,1,.44-.44A.44.44,0,0,1,12.07,11Z"/><path class="cls-1" d="M14.77,9.44a1.1,1.1,0,1,0,1.1,1.1A1.1,1.1,0,0,0,14.77,9.44Zm0,1.54a.44.44,0,1,1,.44-.44A.44.44,0,0,1,14.77,11Z"/><path class="cls-1" d="M9.37,11.91a1.1,1.1,0,1,0,1.1,1.1A1.1,1.1,0,0,0,9.37,11.91Zm0,1.54A.44.44,0,1,1,9.81,13,.44.44,0,0,1,9.37,13.45Z"/><path class="cls-1" d="M12.07,11.91a1.1,1.1,0,1,0,1.1,1.1A1.1,1.1,0,0,0,12.07,11.91Zm0,1.54a.44.44,0,1,1,.44-.44A.44.44,0,0,1,12.07,13.45Z"/><path class="cls-1" d="M14.77,11.91a1.1,1.1,0,1,0,1.1,1.1A1.1,1.1,0,0,0,14.77,11.91Zm0,1.54a.44.44,0,1,1,.44-.44A.44.44,0,0,1,14.77,13.45Z"/></g></g></svg>