<svg xmlns="http://www.w3.org/2000/svg" viewBox="0 0 22.62 16.9"><defs><style>.cls-1{fill:#fff;}</style></defs><title>top-msg-w</title><g id="Layer_2" data-name="Layer 2"><g id="Layer_1-2" data-name="Layer 1"><path class="cls-1" d="M20.27,0H2.35A2.35,2.35,0,0,0,0,2.35v12.2A2.35,2.35,0,0,0,2.35,16.9H20.27a2.35,2.35,0,0,0,2.35-2.35V2.35A2.35,2.35,0,0,0,20.27,0ZM2.35,1.1H20.27a1.25,1.25,0,0,1,1.05.58l-9,7.92,0,0a1.34,1.34,0,0,1-1.89,0l0,0-9-7.92A1.25,1.25,0,0,1,2.35,1.1ZM20.27,15.8H2.35A1.25,1.25,0,0,1,1.1,14.55V3l8.5,7.44a2.44,2.44,0,0,0,3.42,0L21.52,3V14.55A1.25,1.25,0,0,1,20.27,15.8Z"/></g></g></svg>