<svg xmlns="http://www.w3.org/2000/svg" viewBox="0 0 21.63 22.13"><defs><style>.cls-1,.cls-2{fill:#474646;}.cls-1{fill-rule:evenodd;}</style></defs><title>whatsapp</title><g id="Layer_2" data-name="Layer 2"><g id="Layer_1-2" data-name="Layer 1"><path class="cls-1" d="M8.09,6.59A3.63,3.63,0,0,1,9.18,9c.11.61-.61.85-.82,1.38a5.59,5.59,0,0,0,3.57,3.12c.56-.26.62-1.41,1.19-1.29a5.75,5.75,0,0,1,2.56,1.19c.58.41-.35,1.79-.92,2.11-1.85.7-4.53-.39-5.86-1.47C7.75,13.09,6,11,5.8,9.44A3,3,0,0,1,5.89,8.1,5.09,5.09,0,0,1,6.4,7a2.07,2.07,0,0,1,.53-.42A1.06,1.06,0,0,1,8.09,6.59Z"/><path class="cls-2" d="M10.82,0A11,11,0,0,0,0,11.07a11.15,11.15,0,0,0,2,6.48L.79,22.09,6,21a10.66,10.66,0,0,0,4.83,1.16A11,11,0,0,0,21.63,11.07,11,11,0,0,0,10.82,0Zm0,20.76a9.27,9.27,0,0,1-4.46-1.15l-.29-.16L2.25,20.64l1.36-3.3L3.37,17a9.76,9.76,0,0,1-2-6,9.58,9.58,0,0,1,9.44-9.69,9.58,9.58,0,0,1,9.44,9.69A9.58,9.58,0,0,1,10.82,20.76Z"/></g></g></svg>