<svg xmlns="http://www.w3.org/2000/svg" viewBox="0 0 24.72 32.74"><defs><style>.cls-1{fill:#fff;}</style></defs><title>Asset 2</title><g id="Layer_2" data-name="Layer 2"><g id="Layer_1-2" data-name="Layer 1"><g id="Element"><path class="cls-1" d="M24.17,3.33a.55.55,0,0,0-.55.55V28.31a3.34,3.34,0,0,1-3.34,3.34H4a.55.55,0,0,0,0,1.09H20.28a4.44,4.44,0,0,0,4.43-4.43V3.88A.55.55,0,0,0,24.17,3.33Z"/><path class="cls-1" d="M22.49,28.31V2.77A2.77,2.77,0,0,0,19.73,0H.55A.55.55,0,0,0,0,.55V30a.55.55,0,0,0,.55.55H20.28A2.21,2.21,0,0,0,22.49,28.31ZM1.09,1.09H19.73A1.68,1.68,0,0,1,21.4,2.77V28.31a1.12,1.12,0,0,1-1.12,1.12H1.09Z"/><path class="cls-1" d="M17,8.17a7.24,7.24,0,0,0-3.24-2.43l-.08,0a7.21,7.21,0,0,0-4.9,0l-.08,0A7.24,7.24,0,0,0,5.48,8.17l-.07.09a7.19,7.19,0,0,0,0,8.45l.07.1a7.24,7.24,0,0,0,3.24,2.43l.07,0a7.21,7.21,0,0,0,4.93,0l.06,0A7.24,7.24,0,0,0,17,16.8l.06-.08a7.19,7.19,0,0,0,0-8.46ZM6.1,9.19a12.27,12.27,0,0,0,1.19.32,17.19,17.19,0,0,0-.24,2.43H5.15A6.08,6.08,0,0,1,6.1,9.19Zm0,6.6A6.08,6.08,0,0,1,5.15,13h1.9a17.19,17.19,0,0,0,.24,2.43A12.26,12.26,0,0,0,6.1,15.78Zm.72.92.7-.17c.09.36.19.7.31,1A6.17,6.17,0,0,1,6.82,16.7Zm.7-8.26-.7-.17a6.17,6.17,0,0,1,1-.85C7.71,7.74,7.61,8.09,7.52,8.44ZM10.7,18.58a6.07,6.07,0,0,1-1.38-.29,9.36,9.36,0,0,1-.73-2,18.5,18.5,0,0,1,2.11-.18Zm0-3.51a19.4,19.4,0,0,0-2.34.2A16.12,16.12,0,0,1,8.14,13H10.7Zm0-3.13H8.14a16.12,16.12,0,0,1,.22-2.23,19.4,19.4,0,0,0,2.34.2Zm0-3.13a18.5,18.5,0,0,1-2.11-.18,9.36,9.36,0,0,1,.73-2,6.07,6.07,0,0,1,1.38-.29Zm1.09-2.42a6.07,6.07,0,0,1,1.38.29,9.37,9.37,0,0,1,.73,2,18.5,18.5,0,0,1-2.11.18Zm1.38,11.9a6.07,6.07,0,0,1-1.38.29V16.16a18.5,18.5,0,0,1,2.11.18A9.36,9.36,0,0,1,13.17,18.29Zm1-3a19.41,19.41,0,0,0-2.34-.2V13h2.56A16.12,16.12,0,0,1,14.13,15.26Zm-2.34-3.32v-2a19.4,19.4,0,0,0,2.34-.2,16.12,16.12,0,0,1,.22,2.23Zm3.88-3.67-.7.17c-.09-.36-.19-.7-.31-1A6.16,6.16,0,0,1,15.67,8.27Zm-1,9.29c.11-.33.22-.67.31-1l.7.17A6.17,6.17,0,0,1,14.67,17.55Zm1.73-1.77a12.26,12.26,0,0,0-1.19-.32A17.19,17.19,0,0,0,15.44,13h1.9A6.08,6.08,0,0,1,16.4,15.78Zm-1-3.84a17.19,17.19,0,0,0-.24-2.43,12.26,12.26,0,0,0,1.19-.32,6.08,6.08,0,0,1,.94,2.75Z"/><path class="cls-1" d="M17.08,21.93H5.42a.55.55,0,0,0,0,1.09H17.08a.55.55,0,1,0,0-1.09Z"/><path class="cls-1" d="M15.13,24.15H7.36a.55.55,0,0,0,0,1.09h7.77a.55.55,0,1,0,0-1.09Z"/></g></g></g></svg>