<svg xmlns="http://www.w3.org/2000/svg" viewBox="0 0 31.82 26.57"><defs><style>.cls-1{fill:#fff;}</style></defs><title>Asset 1</title><g id="Layer_2" data-name="Layer 2"><g id="Layer_1-2" data-name="Layer 1"><path class="cls-1" d="M27.78,20.68V17.25H24.35v3.43Zm-2.61-2.61H27v1.79H25.16Z"/><path class="cls-1" d="M27.78,11.86H24.35v3.43h3.43ZM27,14.47H25.16V12.68H27Z"/><path class="cls-1" d="M4.45,20.68H7.89V17.25H4.45Zm.82-2.61H7.07v1.79H5.27Z"/><path class="cls-1" d="M4.45,11.86v3.43H7.89V11.86Zm2.61,2.61H5.27V12.68H7.07Z"/><path class="cls-1" d="M20.53,14H17.1v3.43h3.43Zm-.82,2.61H17.92V14.84h1.79Z"/><path class="cls-1" d="M15.14,14H11.7v3.43h3.43Zm-.82,2.61H12.52V14.84h1.79Z"/><path class="cls-1" d="M20.53,8.63H17.1v3.43h3.43Zm-.82,2.61H17.92V9.45h1.79Z"/><path class="cls-1" d="M15.14,8.63H11.7v3.43h3.43Zm-.82,2.61H12.52V9.45h1.79Z"/><path class="cls-1" d="M20.53,3.24H17.1V6.67h3.43Zm-.82,2.61H17.92V4.06h1.79Z"/><path class="cls-1" d="M15.14,3.24H11.7V6.67h3.43Zm-.82,2.61H12.52V4.06h1.79Z"/><path class="cls-1" d="M30.11,25.55V11a1.68,1.68,0,0,0-1.67-1.67H23.16V1.67A1.68,1.68,0,0,0,21.49,0H10.74A1.68,1.68,0,0,0,9.07,1.67V9.36H3.8A1.68,1.68,0,0,0,2.12,11V25.55H0v1H31.82v-1ZM28.44,10.38a.65.65,0,0,1,.65.65V25.55H23.16V10.38ZM10.74,1H21.49a.65.65,0,0,1,.65.65V25.55H18.51V20.17H13.73v5.38H10.09V1.67A.65.65,0,0,1,10.74,1Zm3.81,24.53V21h3.14v4.56ZM3.15,11a.65.65,0,0,1,.65-.65H9.07V25.55H3.15Z"/></g></g></svg>