<svg xmlns="http://www.w3.org/2000/svg" viewBox="0 0 31.97 31.43"><defs><style>.cls-1{fill:#fff;}</style></defs><title>Asset 4</title><g id="Layer_2" data-name="Layer 2"><g id="Layer_1-2" data-name="Layer 1"><path class="cls-1" d="M30.72,14.9h-3.4l-1.93-6-.32-.08a39.2,39.2,0,0,0-18.17,0l-.32.08-1.93,6H1.25A1.25,1.25,0,0,0,0,16.15v.79a1.52,1.52,0,0,0,1.06,1.41l1.5.44L1.7,20v9.65a1.77,1.77,0,0,0,1.77,1.77H7.69a1.77,1.77,0,0,0,1.77-1.77v-2h13v2a1.77,1.77,0,0,0,1.77,1.77H28.5a1.77,1.77,0,0,0,1.77-1.77V20l-.86-1.22,1.5-.44A1.52,1.52,0,0,0,32,16.94v-.79A1.25,1.25,0,0,0,30.72,14.9Zm-23.23-5a38,38,0,0,1,17,0l2.16,6.73H5.32Zm-6.1,7.37a.39.39,0,0,1-.23-.3v-.79a.09.09,0,0,1,.09-.09h3l-.18.55-.83,1.18ZM29.11,29.66a.62.62,0,0,1-.61.61H24.28a.61.61,0,0,1-.61-.61v-2h2.53V26.49H5.78v1.16H8.3v2a.61.61,0,0,1-.61.61H3.47a.62.62,0,0,1-.61-.61V20.38l1.85-2.63H27.26l1.85,2.63Zm1.7-12.73a.39.39,0,0,1-.23.3l-1.88.55-.83-1.18-.18-.55h3a.09.09,0,0,1,.09.09Z"/><path class="cls-1" d="M6.62,20.17A2.37,2.37,0,1,0,9,22.54,2.37,2.37,0,0,0,6.62,20.17Zm0,3.58a1.21,1.21,0,1,1,1.21-1.21A1.21,1.21,0,0,1,6.62,23.75Z"/><path class="cls-1" d="M25.35,20.17a2.37,2.37,0,1,0,2.37,2.37A2.37,2.37,0,0,0,25.35,20.17Zm0,3.58a1.21,1.21,0,1,1,1.21-1.21A1.21,1.21,0,0,1,25.35,23.75Z"/><rect class="cls-1" x="11.07" y="20.6" width="9.82" height="1.16"/><rect class="cls-1" x="11.07" y="23.33" width="9.82" height="1.16"/><rect class="cls-1" x="20.21" y="2.82" width="2.82" height="2.82"/><rect class="cls-1" x="14.57" y="2.82" width="2.82" height="2.82"/><rect class="cls-1" x="8.94" y="2.82" width="2.82" height="2.82"/><rect class="cls-1" x="17.39" width="2.81" height="2.82"/><rect class="cls-1" x="11.76" width="2.81" height="2.82"/></g></g></svg>