<svg xmlns="http://www.w3.org/2000/svg" viewBox="0 0 36.87 33.49"><defs><style>.cls-1{fill:#fffffd;}</style></defs><title>Asset 3</title><g id="Layer_2" data-name="Layer 2"><g id="Layer_1-2" data-name="Layer 1"><path class="cls-1" d="M10.59,24.48H29.46a2,2,0,0,0,2-2V8.58a2,2,0,0,0-2-2h-5.1V4a2,2,0,0,0-2-2H17.65a2,2,0,0,0-2,2V6.61h-5.1a2,2,0,0,0-2,2V22.51A2,2,0,0,0,10.59,24.48ZM17,4a.68.68,0,0,1,.67-.67h4.74a.68.68,0,0,1,.67.67V6.61H17ZM9.91,8.58a.67.67,0,0,1,.67-.67H29.46a.67.67,0,0,1,.67.67V22.51a.67.67,0,0,1-.67.67H10.59a.67.67,0,0,1-.67-.67Z"/><rect class="cls-1" x="12.75" y="10.63" width="1.29" height="9.83"/><rect class="cls-1" x="25.99" y="10.63" width="1.29" height="9.83"/><path class="cls-1" d="M34.72,26.39H8.38l-1.9-1.9v-22L.49,0,0,1.2,5.18,3.31V25L7.8,27.64a3.54,3.54,0,1,0,5.37,0H26.35a3.54,3.54,0,1,0,5.41,0h2.42L36,29.45l.91-.91ZM29.06,32.2A2.25,2.25,0,1,1,31.31,30,2.25,2.25,0,0,1,29.06,32.2Zm-18.59,0A2.25,2.25,0,1,1,12.71,30,2.25,2.25,0,0,1,10.47,32.2Z"/></g></g></svg>