<?xml version="1.0" encoding="utf-8"?>
<!-- Generator: Adobe Illustrator 19.0.0, SVG Export Plug-In . SVG Version: 6.00 Build 0)  -->
<svg version="1.1" id="Layer_1" xmlns="http://www.w3.org/2000/svg" xmlns:xlink="http://www.w3.org/1999/xlink" x="0px" y="0px"
	 viewBox="0 0 26 34" style="enable-background:new 0 0 26 34;" xml:space="preserve">
<style type="text/css">
	.st0{fill:#221F1F;}
	.st1{fill:none;stroke:#221F1F;stroke-miterlimit:10;}
</style>
<g>
	<path class="st0" d="M13,0.3C5.9,0.3,0.3,6,0.3,13S13,33.7,13,33.7S25.7,20.1,25.7,13S20.1,0.3,13,0.3z M13,32.6
		c-1.2-1.3-3.9-4.3-6.1-7.3c-4-5.4-6.1-9.6-6.1-12.3C0.8,6.6,6.6,0.8,13,0.8S25.2,6.7,25.2,13c0,2.6-2.1,6.9-6.1,12.3
		C16.9,28.2,14.2,31.3,13,32.6z"/>
	<circle id="XMLID_1_" class="st1" cx="13.2" cy="12.8" r="5.3"/>
</g>
</svg>
