<?xml version="1.0" encoding="utf-8"?>
<!-- Generator: Adobe Illustrator 19.0.0, SVG Export Plug-In . SVG Version: 6.00 Build 0)  -->
<svg version="1.1" id="Layer_1" xmlns="http://www.w3.org/2000/svg" xmlns:xlink="http://www.w3.org/1999/xlink" x="0px" y="0px"
	 viewBox="0 0 22 22" style="enable-background:new 0 0 22 22;" xml:space="preserve">
<style type="text/css">
	.st0{fill:#FFFFFF;}
</style>
<g id="package_16_">
	<g id="XMLID_2_">
		<g id="XMLID_5_">
			<path id="XMLID_6_" class="st0" d="M19,21.7H3c-0.5,0-1-0.2-1.4-0.6c-0.4-0.4-0.5-0.9-0.5-1.4L1.8,8.3c0.1-1,0.9-1.8,1.9-1.8
				h14.6c1,0,1.8,0.8,1.9,1.8l0.7,11.4c0,0.5-0.2,1-0.5,1.4C20.1,21.5,19.6,21.7,19,21.7z M3.7,7.3c-0.6,0-1.1,0.5-1.1,1.1L1.8,19.7
				c0,0.3,0.1,0.6,0.3,0.9C2.3,20.8,2.6,21,3,21H19c0.3,0,0.6-0.1,0.8-0.4c0.2-0.2,0.3-0.5,0.3-0.9L19.4,8.4c0-0.6-0.5-1.1-1.1-1.1
				L3.7,7.3z"/>
		</g>
		<g id="XMLID_3_">
			<path id="XMLID_4_" class="st0" d="M17.3,9.6c-0.2,0-0.4-0.2-0.4-0.4V8.3c0-4-2.6-7.3-5.9-7.3S5.1,4.3,5.1,8.3v0.9
				c0,0.2-0.2,0.4-0.4,0.4S4.4,9.4,4.4,9.2V8.3c0-4.4,3-8.1,6.6-8.1s6.6,3.6,6.6,8.1v0.9C17.6,9.4,17.5,9.6,17.3,9.6z"/>
		</g>
	</g>
</g>
</svg>
