<?xml version="1.0" encoding="utf-8"?>
<!-- Generator: Adobe Illustrator 19.0.0, SVG Export Plug-In . SVG Version: 6.00 Build 0)  -->
<svg version="1.1" id="Layer_1" xmlns="http://www.w3.org/2000/svg" xmlns:xlink="http://www.w3.org/1999/xlink" x="0px" y="0px"
	 viewBox="0 0 25 24" style="enable-background:new 0 0 25 24;" xml:space="preserve">
<style type="text/css">
	.st0{fill:#FFFFFF;}
</style>
<g id="XMLID_2_">
	<path id="XMLID_5_" class="st0" d="M24.8,18.4L19,12.6l-1.6,1.6l-6.7-6.7l1.6-1.6L6.4,0.1L4.3,2.2c-2,2-2,5.4,0,7.4l11,11
		c0.8,0.8,1.8,1.3,2.9,1.5v0.3H8v1.6h11.8V22c1.1-0.2,2.1-0.6,2.9-1.5L24.8,18.4z M21.6,19.5c-1.4,1.4-3.7,1.4-5.2,0l-11-11
		C4,7,4,4.7,5.4,3.3l1-1L10,5.9L8.5,7.4l9,9l1.6-1.6l3.6,3.6L21.6,19.5z"/>
	<rect id="XMLID_4_" x="3.3" y="22.4" class="st0" width="3.1" height="1.6"/>
	<rect id="XMLID_3_" x="0.2" y="22.4" class="st0" width="1.6" height="1.6"/>
</g>
</svg>
