<?xml version="1.0" encoding="utf-8"?>
<!-- Generator: Adobe Illustrator 19.0.0, SVG Export Plug-In . SVG Version: 6.00 Build 0)  -->
<svg version="1.1" id="Layer_1" xmlns="http://www.w3.org/2000/svg" xmlns:xlink="http://www.w3.org/1999/xlink" x="0px" y="0px"
	 viewBox="0 0 29 29" style="enable-background:new 0 0 29 29;" xml:space="preserve">
<style type="text/css">
	.st0{fill:none;stroke:#272324;stroke-miterlimit:10;}
</style>
<g id="XMLID_2_">
	<path id="XMLID_4_" class="st0" d="M24,25.8c-1.1,1-2.4,1.1-3.5,1.1l0,0c-1.2,0-2.2-0.3-2.3-0.4C10.5,21.9,3.5,14.9,1.5,9.6
		C0.6,7.3,1,4.7,1.7,3.9c0.4-0.4,1.8-1.8,2.7-2.7l6.9,6.9L9.9,9.5c-1.3,1.3-1.3,3.5,0,4.8l4.1,3.8c1.2,1.2,3.5,1.2,4.8,0l1.2-1.2
		l6.5,6.5C25.9,24.1,24.9,25.1,24,25.8z"/>
	<path id="XMLID_3_" class="st0" d="M24.2,25.7c0,0,2.4-0.3,3.8,2.1"/>
</g>
</svg>
