<svg xmlns="http://www.w3.org/2000/svg" viewBox="0 0 46.56 32.13"><defs><style>.cls-1{fill:#010101;}</style></defs><title>box</title><g id="Layer_2" data-name="Layer 2"><g id="Layer_1-2" data-name="Layer 1"><path class="cls-1" d="M45.94,11.43,40,9.22,46,7a.93.93,0,0,0,0-1.74L31.83.06a.93.93,0,0,0-.64,0L23.28,3,15.41.07a.92.92,0,0,0-.64,0L.64,5.28A.93.93,0,0,0,.64,7L6.51,9.21.61,11.4a.93.93,0,0,0,0,1.74L8.25,16V26a.93.93,0,0,0,.61.87L23,32.07a.91.91,0,0,0,.32.06.93.93,0,0,0,.32-.06h0l14.1-5.21A.93.93,0,0,0,38.3,26V16l7.63-2.82a.93.93,0,0,0,0-1.74ZM22.35,29.87,10.11,25.34v-8.7l4.63,1.71a.93.93,0,0,0,.64,0l7-2.58Zm.93-16.42L11.85,9.21,23.28,5,34.71,9.21Zm8.21,3.07-3.15-1.18-2.41-.9L37.37,10.2,43,12.29Z"/></g></g></svg>