<svg xmlns="http://www.w3.org/2000/svg" viewBox="0 0 40.29 38.73"><defs><style>.cls-1{fill:#010101;}</style></defs><title>building</title><g id="Layer_2" data-name="Layer 2"><g id="Layer_1-2" data-name="Layer 1"><rect class="cls-1" x="8.3" y="17.78" width="2.46" height="4.53"/><rect class="cls-1" x="8.3" y="26.83" width="2.46" height="4.53"/><rect class="cls-1" x="8.3" y="8.73" width="2.46" height="4.53"/><rect class="cls-1" x="15.84" y="26.83" width="2.46" height="4.53"/><rect class="cls-1" x="15.84" y="17.78" width="2.46" height="4.53"/><rect class="cls-1" x="15.84" y="8.73" width="2.46" height="4.53"/><rect class="cls-1" x="29.9" y="23" width="4.81" height="2.46"/><rect class="cls-1" x="29.9" y="29.03" width="4.81" height="2.46"/><path class="cls-1" d="M26.6,38.73h8.82a4.87,4.87,0,0,0,4.87-4.87v-18H26.6V0H0V38.73H26.6Zm11.23-20.4V33.86a2.41,2.41,0,0,1-2.41,2.41H26.6V18.33ZM2.46,36.27V2.46H24.14V36.27H2.46Z"/></g></g></svg>