<svg xmlns="http://www.w3.org/2000/svg" viewBox="0 0 32.69 21.32"><defs><style>.cls-1{fill:#0f6bb7;}</style></defs><title>msg</title><g id="Layer_2" data-name="Layer 2"><g id="Layer_1-2" data-name="Layer 1"><path class="cls-1" d="M32,21.32H.71A.71.71,0,0,1,0,20.62V.71A.71.71,0,0,1,.71,0H32a.71.71,0,0,1,.71.71V20.62A.71.71,0,0,1,32,21.32Zm-.71-1.41-.39-1.08L20.25,11.44l-3.32,2.26a1.12,1.12,0,0,1-1.17,0l-3.32-2.26L1.86,18.79l-.45,1.12ZM21.5,10.59l9.78,6.8V3.92ZM1.41,3.92V17.39l9.78-6.8ZM15.76,12a1.11,1.11,0,0,0,1.17,0L30.79,2.55l.49-1.14H1.41l.33,1Z"/></g></g></svg>