<svg xmlns="http://www.w3.org/2000/svg" viewBox="0 0 34.69 33.77"><defs><style>.cls-1{fill:#0f6bb7;}</style></defs><title>phone</title><g id="Layer_2" data-name="Layer 2"><g id="Layer_1-2" data-name="Layer 1"><path class="cls-1" d="M31.59,4.62h-19V3a3,3,0,0,0-3.1-3h-4A3,3,0,0,0,2.4,3V4.71a3.1,3.1,0,0,0-2.4,3V27.58a3.1,3.1,0,0,0,2.4,3v.21a3,3,0,0,0,3.1,3h4a3,3,0,0,0,3.1-3v-.13h19a3.1,3.1,0,0,0,3.1-3.1V7.72A3.1,3.1,0,0,0,31.59,4.62ZM2.4,29.3a1.85,1.85,0,0,1-1.16-1.71V7.72A1.85,1.85,0,0,1,2.4,6Zm8.94,1.52a1.79,1.79,0,0,1-1.86,1.72h-4a1.79,1.79,0,0,1-1.86-1.72V3A1.79,1.79,0,0,1,5.5,1.24h4A1.79,1.79,0,0,1,11.34,3Zm22.11-3.23a1.86,1.86,0,0,1-1.86,1.86h-19V5.86h19a1.86,1.86,0,0,1,1.86,1.86Z"/><path class="cls-1" d="M17,12.65H29.14a.62.62,0,0,0,.62-.62V8.48a.62.62,0,0,0-.62-.62H17a.62.62,0,0,0-.62.62V12A.62.62,0,0,0,17,12.65Zm.62-3.55H28.52v2.31H17.58Z"/><path class="cls-1" d="M17.81,13.26a2.08,2.08,0,1,0,2.08,2.08A2.09,2.09,0,0,0,17.81,13.26Zm0,2.93a.85.85,0,1,1,.85-.85A.85.85,0,0,1,17.81,16.19Z"/><path class="cls-1" d="M22.95,13.26A2.08,2.08,0,1,0,25,15.34,2.09,2.09,0,0,0,22.95,13.26Zm0,2.93a.85.85,0,1,1,.85-.85A.85.85,0,0,1,22.95,16.19Z"/><path class="cls-1" d="M28.08,13.26a2.08,2.08,0,1,0,2.08,2.08A2.09,2.09,0,0,0,28.08,13.26Zm0,2.93a.85.85,0,1,1,.85-.85A.85.85,0,0,1,28.08,16.19Z"/><path class="cls-1" d="M17.81,18A2.08,2.08,0,1,0,19.9,20,2.09,2.09,0,0,0,17.81,18Zm0,2.93a.85.85,0,1,1,.85-.85A.85.85,0,0,1,17.81,20.88Z"/><path class="cls-1" d="M22.95,18A2.08,2.08,0,1,0,25,20,2.09,2.09,0,0,0,22.95,18Zm0,2.93a.85.85,0,1,1,.85-.85A.85.85,0,0,1,22.95,20.88Z"/><path class="cls-1" d="M28.08,18A2.08,2.08,0,1,0,30.17,20,2.09,2.09,0,0,0,28.08,18Zm0,2.93a.85.85,0,1,1,.85-.85A.85.85,0,0,1,28.08,20.88Z"/><path class="cls-1" d="M17.81,22.65a2.08,2.08,0,1,0,2.08,2.08A2.09,2.09,0,0,0,17.81,22.65Zm0,2.93a.85.85,0,1,1,.85-.85A.85.85,0,0,1,17.81,25.58Z"/><path class="cls-1" d="M22.95,22.65A2.08,2.08,0,1,0,25,24.73,2.09,2.09,0,0,0,22.95,22.65Zm0,2.93a.85.85,0,1,1,.85-.85A.85.85,0,0,1,22.95,25.58Z"/><path class="cls-1" d="M28.08,22.65a2.08,2.08,0,1,0,2.08,2.08A2.09,2.09,0,0,0,28.08,22.65Zm0,2.93a.85.85,0,1,1,.85-.85A.85.85,0,0,1,28.08,25.58Z"/></g></g></svg>