<svg xmlns="http://www.w3.org/2000/svg" viewBox="0 0 63.46 31.08"><defs><style>.cls-1{fill:none;stroke:#324044;stroke-miterlimit:10;stroke-width:2px;}</style></defs><title>team</title><g id="Layer_2" data-name="Layer 2"><g id="Layer_1-2" data-name="Layer 1"><path class="cls-1" d="M31.73,14.22h0a5.29,5.29,0,0,1-5.29-5.29V6.29A5.29,5.29,0,0,1,31.73,1h0A5.29,5.29,0,0,1,37,6.29V8.93A5.29,5.29,0,0,1,31.73,14.22Z"/><path class="cls-1" d="M43,23.4A6,6,0,0,0,37,18.19H34.37l-1.69,1.69a1.35,1.35,0,0,1-1.91,0l-1.69-1.69H26.41A6,6,0,0,0,20.5,23.4l-.67,6.68h23.8Z"/><path class="cls-1" d="M14.54,16.86h0a5.29,5.29,0,0,1-5.29-5.29V8.93a5.29,5.29,0,0,1,5.29-5.29h0a5.29,5.29,0,0,1,5.29,5.29v2.64A5.29,5.29,0,0,1,14.54,16.86Z"/><path class="cls-1" d="M21,21.68a4.86,4.86,0,0,0-2.75-.85H10.84A4.87,4.87,0,0,0,6,25l-.72,5.07"/><path class="cls-1" d="M48.91,16.86h0a5.29,5.29,0,0,1-5.29-5.29V8.93a5.29,5.29,0,0,1,5.29-5.29h0A5.29,5.29,0,0,1,54.2,8.93v2.64A5.29,5.29,0,0,1,48.91,16.86Z"/><path class="cls-1" d="M58.17,30.08,57.44,25a4.87,4.87,0,0,0-4.82-4.18H45.21a4.86,4.86,0,0,0-2.74.85"/><line class="cls-1" y1="30.08" x2="63.46" y2="30.08"/></g></g></svg>