<svg xmlns="http://www.w3.org/2000/svg" xmlns:xlink="http://www.w3.org/1999/xlink" viewBox="0 0 19.39 19.39"><defs><style>.cls-1{fill:none;}.cls-2{clip-path:url(#clip-path);}.cls-3{fill:#fff;}</style><clipPath id="clip-path" transform="translate(0 -0.02)"><rect class="cls-1" width="19.41" height="19.46"/></clipPath></defs><title>top-phone-w</title><g id="Layer_2" data-name="Layer 2"><g id="Layer_1-2" data-name="Layer 1"><g class="cls-2"><path class="cls-3" d="M19.37,16a1.49,1.49,0,0,0-.74-1.1l-4.78-2.75a1.5,1.5,0,0,0-1.81.24l-.94.94a.69.69,0,0,1-.92.05A27.23,27.23,0,0,1,8,11.4a27.26,27.26,0,0,1-2-2.17A.69.69,0,0,1,6.1,8.3L7,7.36a1.5,1.5,0,0,0,.24-1.81L4.53.77A1.5,1.5,0,0,0,2.17.46L.75,1.88c-1,1-1,2.8,0,5.1a22.53,22.53,0,0,0,4.86,6.86,22.54,22.54,0,0,0,6.86,4.86,8,8,0,0,0,3,.71,2.86,2.86,0,0,0,2.1-.75l1.42-1.42A1.49,1.49,0,0,0,19.37,16Zm-5.83-3.31,4.78,2.75a.87.87,0,0,1,.27,1.27l-6.36-3.63.26-.26a.87.87,0,0,1,1-.14ZM3.35.66A.86.86,0,0,1,4,1.08L6.74,5.87a.87.87,0,0,1-.14,1l-.24.24L2.72.82A.86.86,0,0,1,3.23.65ZM17.08,18.21c-.79.79-2.4.75-4.42-.09A21.9,21.9,0,0,1,6,13.39,21.91,21.91,0,0,1,1.29,6.74c-.84-2-.88-3.63-.09-4.42L2.25,1.27,5.91,7.61l-.24.24a1.32,1.32,0,0,0-.1,1.76,27.84,27.84,0,0,0,2,2.22,27.88,27.88,0,0,0,2.22,2,1.32,1.32,0,0,0,1.76-.1l.22-.22,6.37,3.63Zm0,0" transform="translate(0 -0.02)"/></g></g></g></svg>